<?xml version="1.0" encoding="utf-8"?>
<!-- Generator: Adobe Illustrator 19.2.1, SVG Export Plug-In . SVG Version: 6.00 Build 0)  -->
<!DOCTYPE svg PUBLIC "-//W3C//DTD SVG 1.1//EN" "http://www.w3.org/Graphics/SVG/1.1/DTD/svg11.dtd">
<svg version="1.1" id="Calque_1" xmlns="http://www.w3.org/2000/svg" xmlns:xlink="http://www.w3.org/1999/xlink" x="0px" y="0px"
	 viewBox="0 0 121.9 121.9" style="enable-background:new 0 0 121.9 121.9;" xml:space="preserve">
<g>
	<path d="M60.9,121.9C27.3,121.9,0,94.5,0,60.9C0,27.3,27.3,0,60.9,0c33.6,0,60.9,27.3,60.9,60.9C121.9,94.5,94.5,121.9,60.9,121.9z
		 M60.9,3C29,3,3,29,3,60.9c0,32,26,57.9,57.9,57.9c32,0,57.9-26,57.9-57.9C118.9,29,92.9,3,60.9,3z"/>
</g>
<g>
	<path d="M55.8,63.3c0,1.1,0.9,2.1,2.1,2.1c1.1,0,2.1-0.9,2.1-2.1v-4.9c0-1.1-0.9-2.1-2.1-2.1c-1.1,0-2.1,0.9-2.1,2.1V63.3z"/>
</g>
<g>
	<path d="M63.6,65.3c1.1,0,2.1-0.9,2.1-2.1v-4.9c0-1.1-0.9-2.1-2.1-2.1c-1.1,0-2.1,0.9-2.1,2.1v4.9C61.5,64.4,62.4,65.3,63.6,65.3"
		/>
</g>
<g>
	<path d="M99.2,55.8c-0.8,2.2-1.9,5.9-0.8,8.3c0.1,0.1,0.1,0.3,0.1,0.4c0.4,1.7,2.8,10.6-5.6,19.2c0,0-16.3,15.6-35.9,15.6
		c-9.5,0-19.8-3.7-29.4-14.6c-0.1-0.1-0.2-0.2-0.2-0.3c-0.7-1.2-4.4-7.4,0.1-7.4c0.8,0,2,0.2,3.5,0.7c1.8,1,3.7,1.7,5.7,2.1
		c4,1.2,8.7,2.2,13.9,2.4c0.1,0,0.1,0,0.2,0c0,0,0.1,0,0.1,0c0.6,0,1.3,0.1,2,0.1c11.3,0,24.3-3.8,35-16.4c0.2-0.2,0.5-0.4,0.8-0.6
		c2.5-2.2,5.4-3.3,5.8-10.5c0-0.9,0.6-1.8,1.5-2.1c0,0,0.1,0,0.1,0c0.3-0.1,0.6-0.2,0.9-0.2C98.5,52.5,99.8,54.1,99.2,55.8
		 M29.6,43.1c1.4-1.3,2.6-3.1,3.9-5c2.3-3.3,4.8-6.9,7.4-7.2c0.1,0,0.2,0,0.3,0c0.1,0,0.2,0,0.2,0c2.6,0.3,5.5,4.6,7.9,8.2
		c0.4,0.6,0.8,1.2,1.2,1.8c-2.6,0.2-5,0.9-6.9,2.7C39,48.2,38,55.7,38,61.3c0,5,1.7,9.9,4.5,13.9c-0.4-0.1-0.8-0.2-1.2-0.2
		c-1,0-1.8,0.5-2.4,0.9c-0.1,0.1-0.2,0.1-0.4,0.2c-1.8-0.5-3.3-1.1-4.4-1.5c-0.7-0.3-1.4-0.5-2-0.8c-5.7-3.4-9.6-10-9.6-17.2
		C22.4,52.2,24.9,47.7,29.6,43.1 M60.7,45.3c1.5,0,3-0.1,4.5-0.2c3.9-0.3,7.6-0.6,9.8,1.4c2.9,2.8,4.5,8,4.5,14.7
		c0,2.8-0.6,5.7-1.9,8.4c-0.1,0.2-0.1,0.3-0.1,0.5c-7.1,5.3-15.3,8-24.6,8c-0.6,0-1.1,0-1.7,0C45.6,74.6,42,68,42,61.3
		c0-6.7,1.6-12,4.5-14.7c2.1-2,5.9-1.8,9.8-1.4C57.7,45.2,59.3,45.3,60.7,45.3 M102.5,63.5c-0.1-0.3-0.2-0.7-0.3-1
		c-0.2-0.4-0.3-2,0.9-5.3c0.7-2,0.5-4.3-0.8-6c-1.2-1.8-3.2-2.8-5.4-2.8c-0.8,0-1.7,0.2-2.4,0.5l-0.1,0.1c-2.3,1-3.8,3.2-4,5.7
		c-0.2,4.3-1.2,5.1-3.1,6.5c-0.4,0.3-0.8,0.6-1.3,1l0,0c-0.3,0.2-0.8,0.5-1.3,1.1c-0.5,0.6-1.1,1.2-1.6,1.8c0.2-1.2,0.3-2.5,0.3-3.7
		c0-5.5-1-13.1-5.8-17.6c-2.9-2.7-6.7-2.9-10.6-2.7c4.8-3.5,2.9-8,2.9-8s-0.2,0-0.6,0c-1.4,0-5.1,0.5-6.7,5.7v-1.2
		c0-1.1-0.9-2.1-2.1-2.1c-1.1,0-2.1,0.9-2.1,2.1v3.8c-0.7,0-1.4-0.1-2.1-0.2c-0.3,0-0.6,0-0.8-0.1c-0.9-1.1-1.9-2.6-3-4.2
		C50.5,33.5,48,29.8,45,28c8.1-3.5,5.6-9.5,5.6-9.5s-0.2,0-0.6,0c-1.4,0-5.1,0.5-6.7,5.7V23c0-1.1-0.9-2.1-2.1-2.1
		c-1.1,0-2.1,0.9-2.1,2.1v4.2c-3.7,1.1-6.5,5.1-8.9,8.6c-1.2,1.8-2.4,3.4-3.4,4.4c-5.6,5.3-8.4,10.8-8.4,16.3
		c0,6.4,2.6,12.3,6.7,16.7c-1.4,0.5-2.5,1.4-3.2,2.6c-1.5,2.6-0.8,6.2,1.9,10.7c0.2,0.3,0.4,0.6,0.7,0.9c9.3,10.6,20.2,16,32.5,16
		c21,0,38-16,38.7-16.7l0.1,0l0,0C102.3,80.1,104.6,71.9,102.5,63.5L102.5,63.5z"/>
</g>
</svg>
