<?xml version="1.0" encoding="utf-8"?>
<!-- Generator: Adobe Illustrator 19.2.1, SVG Export Plug-In . SVG Version: 6.00 Build 0)  -->
<!DOCTYPE svg PUBLIC "-//W3C//DTD SVG 1.1//EN" "http://www.w3.org/Graphics/SVG/1.1/DTD/svg11.dtd">
<svg version="1.1" id="Calque_1" xmlns="http://www.w3.org/2000/svg" xmlns:xlink="http://www.w3.org/1999/xlink" x="0px" y="0px"
	 viewBox="0 0 121.9 121.9" style="enable-background:new 0 0 121.9 121.9;" xml:space="preserve">
<g>
	<path d="M60.9,121.9C27.3,121.9,0,94.5,0,60.9C0,27.3,27.3,0,60.9,0c33.6,0,60.9,27.3,60.9,60.9C121.9,94.5,94.6,121.9,60.9,121.9z
		 M60.9,3C29,3,3,29,3,60.9c0,32,26,57.9,57.9,57.9c32,0,57.9-26,57.9-57.9C118.9,29,92.9,3,60.9,3z"/>
</g>
<g>
	<path d="M52.3,87.3l1,1L52.3,87.3l6.6-6.2l-8.7-8.2l-6.4,6c-2.9,2.9-3.4,7.3-1.1,9.5C45,90.7,49.3,90.2,52.3,87.3 M50.2,69.1
		l8.7-8.2l-8.7-8.2l-8.7,8.2L50.2,69.1z M37.6,60.9c-2.7-3.2-7.4-7.4-10.2-7.4c-4.2,0-7.6,3.3-7.6,7.4c0,4.1,3.4,7.4,7.6,7.4
		C30.2,68.4,34.8,64.1,37.6,60.9 M50.2,49l8.7-8.2l-6.6-6.2l1-1l-1,1c-2.9-2.9-7.2-3.4-9.6-1.2c-2.4,2.2-1.9,6.6,1.1,9.5L50.2,49z
		 M63,40.8l8.7,8.2l6.4-6l0,0c3-2.9,3.5-7.1,1.2-9.4c-2.3-2.3-6.8-1.8-9.8,1.1L63,40.8z M69.7,50.9l-8.7-8.2l-8.7,8.2l8.7,8.2
		L69.7,50.9z M71.7,52.8L63,60.9l8.7,8.2l8.7-8.2L71.7,52.8z M84.3,60.9c2.7,3.2,7.4,7.4,10.2,7.4c4.2,0,7.6-3.3,7.6-7.4
		c0-4.1-3.4-7.4-7.6-7.4C91.7,53.5,87.1,57.8,84.3,60.9 M69.7,71l-8.7-8.2L52.2,71l8.7,8.2L69.7,71z M71.7,72.9L63,81.1l6.5,6.1
		c3,2.9,7.5,3.4,9.8,1.1c2.3-2.3,1.8-6.5-1.2-9.4l0,0L71.7,72.9z M40.7,90.4c-1.6-1.5-2.4-3.5-2.4-5.7c0-2.6,1.2-5.5,3.4-7.7l1,1
		l-1-1l6.4-6L39.5,63c-2.3,2.6-7.7,8.1-12.2,8.1c-5.8,0-10.5-4.6-10.5-10.2c0-5.6,4.7-10.2,10.5-10.2c4.5,0,9.9,5.6,12.2,8.1
		l8.6-8.1l-6.4-6l1-1l-1,1c-2.2-2.2-3.4-5.1-3.4-7.7c0-2.2,0.8-4.2,2.4-5.7c3.5-3.3,9.6-2.8,13.6,1.2l0,0l6.7,6.2l6.7-6.2l0,0
		c4.2-3.9,10.3-4.4,13.7-1c3.4,3.4,2.9,9.3-1.2,13.3l0,0l0,0l-6.4,6l8.6,8.1c2.3-2.6,7.7-8.1,12.2-8.1c5.8,0,10.5,4.6,10.5,10.2
		c0,5.6-4.7,10.2-10.5,10.2c-4.5,0-9.9-5.6-12.2-8.1L73.8,71l6.4,6l0,0l0,0c4.1,3.9,4.6,9.9,1.2,13.3c-3.4,3.4-9.5,2.9-13.7-1h0
		L60.9,83l-6.7,6.2l0,0C50.2,93.2,44.2,93.7,40.7,90.4 M26.9,59.1c-1.1,0-1.9,0.8-1.9,1.9c0,1,0.9,1.9,1.9,1.9
		c1.1,0,1.9-0.8,1.9-1.9C28.8,59.9,28,59.1,26.9,59.1 M52.5,81.4c0-1-0.9-1.9-1.9-1.9c-1.1,0-1.9,0.8-1.9,1.9s0.9,1.9,1.9,1.9
		C51.6,83.3,52.5,82.4,52.5,81.4 M52.5,60.9c0-1-0.9-1.9-1.9-1.9c-1.1,0-1.9,0.8-1.9,1.9c0,1,0.9,1.9,1.9,1.9
		C51.6,62.8,52.5,62,52.5,60.9 M52.5,40.7c0-1-0.9-1.9-1.9-1.9c-1.1,0-1.9,0.8-1.9,1.9c0,1,0.9,1.9,1.9,1.9
		C51.6,42.6,52.5,41.7,52.5,40.7 M69.8,81.4c0,1,0.9,1.9,1.9,1.9c1.1,0,1.9-0.8,1.9-1.9s-0.9-1.9-1.9-1.9
		C70.7,79.5,69.8,80.3,69.8,81.4 M71.8,62.8c1.1,0,1.9-0.8,1.9-1.9c0-1-0.9-1.9-1.9-1.9c-1.1,0-1.9,0.8-1.9,1.9
		C69.8,62,70.7,62.8,71.8,62.8 M73.7,40.7c0-1-0.9-1.9-1.9-1.9c-1.1,0-1.9,0.8-1.9,1.9c0,1,0.9,1.9,1.9,1.9
		C72.9,42.6,73.7,41.7,73.7,40.7 M93,60.9c0-1,0.9-1.9,1.9-1.9c1.1,0,1.9,0.8,1.9,1.9c0,1-0.9,1.9-1.9,1.9C93.9,62.8,93,62,93,60.9"
		/>
</g>
</svg>
