<?xml version="1.0" encoding="utf-8"?>
<!-- Generator: Adobe Illustrator 19.2.1, SVG Export Plug-In . SVG Version: 6.00 Build 0)  -->
<!DOCTYPE svg PUBLIC "-//W3C//DTD SVG 1.1//EN" "http://www.w3.org/Graphics/SVG/1.1/DTD/svg11.dtd">
<svg version="1.1" id="Calque_1" xmlns="http://www.w3.org/2000/svg" xmlns:xlink="http://www.w3.org/1999/xlink" x="0px" y="0px"
	 viewBox="0 0 121.9 121.9" style="enable-background:new 0 0 121.9 121.9;" xml:space="preserve">
<g>
	<path d="M60.9,121.9C27.3,121.9,0,94.5,0,60.9C0,27.3,27.3,0,60.9,0c33.6,0,60.9,27.3,60.9,60.9C121.9,94.5,94.5,121.9,60.9,121.9z
		 M60.9,3C29,3,3,29,3,60.9c0,32,26,57.9,57.9,57.9c32,0,57.9-26,57.9-57.9C118.9,29,92.9,3,60.9,3z"/>
</g>
<g>
	<path d="M58.8,96.4c-0.6,0-1.3-0.3-1.7-0.8L22,50.7c-0.5-0.6-0.6-1.5-0.2-2.3c0.4-0.7,1.1-1.2,1.9-1.2h18.5l-4.3-7.1
		c-0.6-1-0.3-2.3,0.7-2.9c1-0.6,2.3-0.3,2.9,0.7l6.2,10.4c0.4,0.7,0.4,1.5,0,2.2c-0.4,0.7-1.1,1.1-1.9,1.1H28l26.2,33.4l-7-27.4
		c-0.3-1.1,0.4-2.3,1.5-2.6c1.2-0.3,2.3,0.4,2.6,1.5l9.6,37.2c0,0,0,0.1,0,0.1c0,0,0-0.1,0-0.1l9.8-37.2c0.3-1.1,1.5-1.8,2.6-1.5
		c1.1,0.3,1.8,1.5,1.5,2.6l-7.5,28.3l25.8-29.8c0.8-0.9,2.1-1,3-0.2c0.9,0.8,1,2.1,0.2,3L64.7,95.6c-0.7,0.8-1.7,1-2.6,0.5
		c-0.6-0.3-1-0.9-1.1-1.5c-0.1,0.6-0.5,1.2-1.2,1.5C59.5,96.3,59.2,96.4,58.8,96.4"/>
</g>
<g>
	<path d="M98.3,51.5H76.4c-0.8,0-1.5-0.4-1.8-1c-0.4-0.7-0.4-1.5,0-2.1L80.3,38c0.6-1,1.9-1.4,2.9-0.8c1,0.6,1.4,1.9,0.8,2.9l-4,7.2
		h13.8l-9.3-11.8H37.3l-7.6,8.2c-0.8,0.9-2.2,0.9-3,0.1c-0.9-0.8-0.9-2.2-0.1-3l8.2-8.9c0.4-0.4,1-0.7,1.6-0.7h49.2
		c0.7,0,1.3,0.3,1.7,0.8l12.7,16.1c0.5,0.6,0.6,1.5,0.2,2.3C99.8,51.1,99.1,51.5,98.3,51.5"/>
</g>
<g>
	<path d="M69.9,51.5H52c-0.8,0-1.4-0.4-1.8-1c-0.4-0.6-0.4-1.4,0-2.1L55.7,38c0.6-1,1.9-1.4,2.9-0.9c1,0.6,1.4,1.9,0.9,2.9l-3.9,7.2
		h10.8L62.5,40c-0.6-1-0.2-2.3,0.9-2.9c1-0.6,2.3-0.2,2.9,0.9l5.6,10.4c0.4,0.7,0.3,1.5,0,2.1C71.4,51.1,70.7,51.5,69.9,51.5"/>
</g>
</svg>
