<?xml version="1.0" encoding="utf-8"?>
<!-- Generator: Adobe Illustrator 19.2.1, SVG Export Plug-In . SVG Version: 6.00 Build 0)  -->
<!DOCTYPE svg PUBLIC "-//W3C//DTD SVG 1.1//EN" "http://www.w3.org/Graphics/SVG/1.1/DTD/svg11.dtd">
<svg version="1.1" id="Calque_1" xmlns="http://www.w3.org/2000/svg" xmlns:xlink="http://www.w3.org/1999/xlink" x="0px" y="0px"
	 viewBox="0 0 121.9 121.9" style="enable-background:new 0 0 121.9 121.9;" xml:space="preserve">
<g>
	<path d="M51.3,45.8c0-5.3,4.3-9.6,9.6-9.6c5.3,0,9.6,4.3,9.6,9.6c0,5.3-4.3,9.5-9.6,9.5C55.6,55.3,51.3,51,51.3,45.8 M73.2,45.8
		c0-6.8-5.6-12.3-12.3-12.3c-6.8,0-12.3,5.6-12.3,12.3c0,6.8,5.6,12.3,12.3,12.3C67.6,58.1,73.2,52.6,73.2,45.8"/>
</g>
<g>
	<path d="M90,96.3L83.5,87l7.7-14.6l6.5,9.3L90,96.3z M80.9,86L43.4,98.7l7.4-14.2l4.4-1.5l2.1,2.7c0.8,1.1,2.1,1.7,3.6,1.7
		c1.5,0,2.7-0.6,3.6-1.7l5.9-7.6l18-6.3L80.9,86z M40.6,98.1l-6.5-9.3l7.7-14.6l6.5,9.3L40.6,98.1z M31.5,87.8l-6.2,2.3l7.2-13.8
		l6.2-2.3L31.5,87.8z M41.1,60.7c-1.9-2.7-3.2-5.7-3.9-8.9c-0.4-1.7-0.5-3.5-0.5-5.2c0-13.3,10.9-24,24.2-24s24.2,10.8,24.2,24.1
		c0,1.7-0.2,3.5-0.5,5.2c-0.7,3.2-2,6.1-3.9,8.8L68.8,75.6l-3.1,3.9l-3.5,4.4c-0.6,0.8-2.1,0.8-2.7,0L58,82.1l-1.8-2.3L41.1,60.7z
		 M100.4,80.7l-8.2-11.9l-0.1-0.1L92,68.7l-0.2-0.2l-0.1-0.1c-0.1,0-0.2-0.1-0.3-0.1h-0.1h-0.3h-0.2c-0.1,0-0.3,0-0.4,0.1
		c-0.3,0.1-13.2,4.6-17.2,5.9l0.2-0.3l9.2-11.7c2.1-3,3.6-6.3,4.4-9.9c0.5-1.9,0.6-3.8,0.6-5.8c0.1-14.8-12-26.9-26.9-26.9
		s-27,12.1-27,26.9c0,1.9,0.2,3.8,0.6,5.8c0.8,3.6,2.3,6.9,4.4,9.9l14.5,18.4l-3,1l-7.7-11.1l-0.1-0.1l-0.1-0.1l-0.2-0.2l-0.1-0.1
		c-0.1,0-0.2-0.1-0.2-0.1H42h-0.3h-0.1c-0.1,0-0.3,0-0.4,0.1l-10.1,3.7c-0.4,0.1-0.5,0.4-0.7,0.6l-9.1,17.4
		c-0.3,0.5-0.2,1.1,0.2,1.6c0.3,0.3,0.6,0.5,1,0.5c0.2,0,0.3,0,0.5-0.1l9.1-3.3l7.6,11l0.1,0.1l0.1,0.1l0.1,0.1
		c0.1,0,0.1,0.1,0.2,0.1c0,0,0.1,0,0.1,0.1c0.1,0,0.1,0.1,0.2,0.1h0.1h0.3c0.2,0,0.3,0,0.5-0.1l40.1-13.5l0.1,0.2L89,99.7
		c0.3,0.4,0.6,0.5,1.1,0.5h0.1c0.5,0,0.9-0.3,1.1-0.7l9.1-17.4C100.7,81.7,100.7,81.2,100.4,80.7"/>
</g>
<g>
	<path d="M60.9,121.9C27.3,121.9,0,94.5,0,60.9C0,27.3,27.3,0,60.9,0c33.6,0,60.9,27.3,60.9,60.9C121.9,94.5,94.5,121.9,60.9,121.9z
		 M60.9,3C29,3,3,29,3,60.9c0,32,26,57.9,57.9,57.9c32,0,57.9-26,57.9-57.9C118.9,29,92.9,3,60.9,3z"/>
</g>
</svg>
