<?xml version="1.0" encoding="utf-8"?>
<!-- Generator: Adobe Illustrator 19.2.1, SVG Export Plug-In . SVG Version: 6.00 Build 0)  -->
<!DOCTYPE svg PUBLIC "-//W3C//DTD SVG 1.1//EN" "http://www.w3.org/Graphics/SVG/1.1/DTD/svg11.dtd">
<svg version="1.1" id="Calque_1" xmlns="http://www.w3.org/2000/svg" xmlns:xlink="http://www.w3.org/1999/xlink" x="0px" y="0px"
	 viewBox="0 0 121.9 121.9" style="enable-background:new 0 0 121.9 121.9;" xml:space="preserve">
<g>
	<path d="M60.9,121.9C27.3,121.9,0,94.5,0,60.9C0,27.3,27.3,0,60.9,0c33.6,0,60.9,27.3,60.9,60.9C121.9,94.5,94.5,121.9,60.9,121.9z
		 M60.9,3C29,3,3,29,3,60.9c0,32,26,57.9,57.9,57.9c32,0,57.9-26,57.9-57.9C118.9,29,92.9,3,60.9,3z"/>
</g>
<g>
	<path d="M80.8,48.5c0-0.2,0-0.4-0.1-0.6c-0.3-1.8-0.7-3.7-1.2-5.5h0c-2.7-9-8.8-16.9-17.2-21.7l-1.4-0.8l-1.4,0.8
		c-9,5.2-15.3,13.9-17.7,23.8c2.2-1.1,4.5-2,6.8-2.7c2.4-6.2,6.7-11.5,12.3-15.2c5.8,3.8,10.2,9.4,12.5,15.8h0c0,0,0,0,0,0
		c0.7,1.9,1.2,3.9,1.5,5.9c0,0,0,0,0,0c0.3,2.1,0.4,4.3,0.3,6.5c0,0,0,0,0,0c-0.1,1.5-0.3,3-0.6,4.5c0,0.1,0,0.2-0.1,0.2
		c-0.4,1.8-0.9,3.6-1.6,5.4c0,0,0,0,0,0h0c-0.6,1.4-1.2,2.7-1.9,4c-1.5,2.5-3.3,4.8-5.4,6.8c1.8,1,3.7,1.8,5.7,2.3
		c1.7-1.9,3.3-4,4.6-6.3c1.3-2.3,2.4-4.7,3.2-7.1c0.5-1.6,0.9-3.3,1.2-5c0-0.2,0.1-0.4,0.1-0.6C81.2,55.7,81.3,52.1,80.8,48.5
		 M68.6,46.5c-3.5-0.7-7.2-0.9-10.8-0.6c-2.2,0.2-4.4,0.6-6.5,1.2c-0.2,0-0.3,0.1-0.5,0.1c-4.2,1.2-8.2,3.1-11.7,5.6
		c-0.1,0-0.1,0.1-0.2,0.1c-1.8,1.3-3.5,2.7-5,4.4c-6.6,6.9-10.4,16.2-10.4,25.9v1.7l1.4,0.8c8.9,5.1,19.7,6.2,29.4,3.4
		c-2-1.4-4-2.9-5.8-4.5c-6.5,1-13.3,0-19.3-3c0.4-7.2,3.3-14,8-19.3c0,0,0.2-0.2,0.3-0.4c1.1-1.2,2.3-2.3,3.6-3.3c0,0,0,0,0,0
		c1.7-1.4,3.5-2.6,5.4-3.6c0,0,0,0,0,0c2.1-1,4.3-1.8,6.5-2.4c1.6-0.4,3.1-0.7,4.7-0.9c3.9-0.4,7.9,0,11.7,1
		C69.4,50.6,69.1,48.5,68.6,46.5 M98.5,83.2v1.7L97,85.7c-5,2.9-10.6,4.5-16.2,4.9c-0.8,0.1-1.6,0.1-2.5,0.1c-3.2,0-6.5-0.4-9.6-1.2
		c-0.1,0-0.1,0-0.2-0.1c-1.5-0.4-2.9-0.9-4.3-1.4c-0.2-0.1-0.5-0.2-0.7-0.3c-3.3-1.4-6.4-3.3-9.3-5.7c-1.3-1.1-2.5-2.2-3.6-3.5
		c-0.4-0.5-0.9-0.9-1.3-1.4c-1.3-1.6-2.5-3.2-3.5-5c0-0.1-0.1-0.2-0.2-0.2l0,0c-1.3-2.2-2.3-4.5-3.1-6.9c1.5-1.5,3.1-2.9,4.9-4
		c0.7,2.8,1.8,5.5,3.2,8c0.7,1.2,1.5,2.3,2.3,3.4c0.2,0.3,0.4,0.5,0.6,0.8c0.6,0.8,1.3,1.6,2,2.3c0.3,0.3,0.6,0.5,0.9,0.8
		c0.7,0.7,1.4,1.3,2.2,1.9c0.3,0.2,0.6,0.4,0.9,0.6c0.4,0.3,0.8,0.6,1.3,0.9c0,0,0,0,0,0c1.8,1.2,3.8,2.2,5.8,3c0,0,0,0,0,0
		c2.3,0.9,4.7,1.5,7.1,1.8c0.5,0.1,0.9,0.1,1.4,0.1c0.7,0.1,1.4,0.1,2.1,0.1c0.3,0,0.7,0.1,1,0.1c0.3,0,0.6,0,0.9-0.1
		c4.6-0.1,9.2-1.3,13.4-3.4c-0.4-6.7-2.9-13.1-7-18.3c0.6-2.4,0.9-4.8,1.1-7.2C94.1,63,98.5,72.8,98.5,83.2"/>
</g>
<g>
	<path d="M78.3,91.2c-3.3,0-6.5-0.4-9.7-1.2l-0.1,0c-1.5-0.4-3-0.9-4.4-1.5c-0.1-0.1-0.3-0.1-0.4-0.2c-0.1,0-0.2-0.1-0.3-0.1
		c-3.3-1.4-6.5-3.3-9.4-5.7c-1.3-1.1-2.6-2.3-3.7-3.5c-0.4-0.5-0.9-0.9-1.3-1.4c-1.5-1.8-2.6-3.4-3.6-5c0,0,0,0,0-0.1l0,0l-0.1-0.2
		c-1.3-2.2-2.3-4.5-3.1-7l-0.1-0.3l0.2-0.2c1.6-1.6,3.3-3,5-4l0.6-0.4L48,61c0.7,2.9,1.8,5.5,3.2,7.9c0.6,1.1,1.4,2.2,2.3,3.4
		c0.1,0.1,0.2,0.3,0.4,0.4c0.1,0.1,0.2,0.2,0.3,0.3c0.7,0.9,1.4,1.6,2,2.3c0.2,0.2,0.4,0.4,0.6,0.5L57,76c0.8,0.7,1.5,1.3,2.2,1.9
		c0.3,0.2,0.6,0.4,0.8,0.6c0.2,0.1,0.3,0.2,0.5,0.4c0.2,0.2,0.5,0.4,0.7,0.5c1.7,1.1,3.6,2.1,5.4,2.8l0.2-0.1l0.2,0.3
		c2.1,0.8,4.4,1.4,6.8,1.7c0.3,0,0.7,0.1,1,0.1l0.4,0c0.8,0.1,1.5,0.1,2.1,0.1c0.2,0,0.3,0,0.5,0c0.4,0,0.7,0,1.1,0l0.3,0
		c4.5-0.1,9-1.2,12.9-3.2c-0.4-6.4-2.9-12.6-6.9-17.7l-0.2-0.2l0.1-0.2c0.6-2.3,0.9-4.7,1.1-7.1l0.1-1.1l0.8,0.7
		C94.6,62.9,99,72.9,99,83.2v2l-1.7,1c-4.9,2.8-10.6,4.5-16.5,4.9l-0.7,0.1C79.5,91.2,78.9,91.2,78.3,91.2z M46.1,71.5L46.1,71.5
		l0.1,0.2c0.1,0.1,0.1,0.2,0.2,0.2c0.9,1.6,2.1,3.2,3.5,4.9c0.4,0.5,0.8,0.9,1.2,1.4c1.1,1.2,2.3,2.4,3.6,3.4
		c2.8,2.3,5.9,4.2,9.1,5.6c0.1,0,0.2,0.1,0.3,0.1c0.1,0.1,0.2,0.1,0.4,0.2c1.4,0.5,2.8,1,4.2,1.4l0.1,0c3.1,0.8,6.3,1.2,9.5,1.2
		c0.6,0,1.1,0,1.7-0.1c0.2,0,0.5,0,0.7-0.1c5.7-0.4,11.2-2,16-4.8l1.2-0.7v-1.4c0-9.7-3.9-19.1-10.8-26.1c-0.2,2-0.5,4-1,6
		c4.2,5.2,6.6,11.7,7,18.4l0,0.3L92.9,82c-4.1,2.1-8.8,3.3-13.6,3.4l-0.3,0c-0.4,0-0.8,0-1.3,0c-0.1,0-0.3,0-0.4,0
		c-0.7,0-1.3-0.1-2.2-0.1l-0.4,0c-0.3,0-0.7-0.1-1-0.1c-2.4-0.3-4.8-0.9-6.9-1.7l-0.2,0.1l-0.2-0.3l-0.7-0.3l0,0
		c-1.7-0.7-3.4-1.6-5.1-2.7l0,0c-0.3-0.2-0.5-0.4-0.8-0.6c-0.2-0.1-0.3-0.2-0.5-0.4c-0.3-0.2-0.6-0.4-0.9-0.6
		c-0.7-0.6-1.5-1.2-2.2-1.9L56,76.5c-0.2-0.2-0.4-0.4-0.6-0.6c-0.7-0.7-1.3-1.4-2.1-2.3c-0.1-0.1-0.2-0.2-0.3-0.3
		c-0.1-0.2-0.3-0.3-0.4-0.5c-0.9-1.2-1.7-2.4-2.4-3.5c-1.3-2.2-2.3-4.8-3.1-7.4c-1.4,0.9-2.7,2-4,3.3C44,67.4,45,69.5,46.1,71.5z
		 M43.5,91.1c-6.6,0-13.2-1.7-18.9-5l-1.7-1v-2c0-9.8,3.7-19.1,10.6-26.3c1.5-1.5,3.2-3,5.1-4.4l0.2-0.1c3.6-2.6,7.6-4.5,11.9-5.7
		c0.1,0,0.1,0,0.2-0.1c0.1,0,0.2-0.1,0.3-0.1c2.2-0.6,4.4-1,6.6-1.2c3.7-0.3,7.4-0.1,11,0.6l0.3,0.1l0.1,0.3
		c0.6,2.1,0.9,4.2,0.9,6.3l0,0.7l-0.6-0.2c-3.7-1-7.6-1.3-11.5-1c-1.4,0.1-2.9,0.4-4.7,0.9c-2.2,0.6-4.3,1.3-6.1,2.2l0,0.2l-0.4,0
		c-1.7,0.9-3.3,1.9-5,3.3l0,0.2L41.3,59c-1.3,1-2.4,2.1-3.4,3.2l-0.3,0.4c-4.6,5.2-7.4,11.9-7.8,18.7C35.4,84,42,85,48.4,84l0.2,0
		l0.2,0.2c1.7,1.6,3.5,3.1,5.7,4.5l0.9,0.6l-1,0.3C50.8,90.6,47.1,91.1,43.5,91.1z M23.9,84.6l1.2,0.7c8.3,4.8,18.4,6.1,28,3.6
		c-1.8-1.2-3.3-2.5-4.7-3.8C41.7,86,34.8,84.9,29,82l-0.3-0.1l0-0.3c0.4-7.2,3.3-14.2,8.1-19.7l0.3-0.4c1-1.1,2.1-2.2,3.4-3.2l0-0.2
		l0.4-0.1l0.6-0.4l0,0c1.5-1.2,3-2.1,4.6-2.9l0-0.2l0.4,0c1.9-1,4.1-1.8,6.5-2.4c1.8-0.5,3.3-0.7,4.8-0.9c3.8-0.4,7.5-0.1,11.2,0.8
		c-0.1-1.7-0.3-3.4-0.8-5.1c-3.4-0.7-6.9-0.8-10.4-0.6c-2.1,0.2-4.3,0.6-6.5,1.1c-0.1,0-0.1,0-0.2,0.1c-0.1,0-0.2,0.1-0.2,0.1
		c-4.2,1.2-8.1,3.1-11.5,5.6l-0.2,0.1c-1.9,1.4-3.5,2.8-5,4.3c-6.6,7-10.3,16-10.3,25.6V84.6z M71.7,78.8l-0.3-0.1
		c-2-0.5-3.9-1.3-5.8-2.4L64.9,76l0.5-0.5c2.1-2.1,3.9-4.3,5.3-6.7c0.7-1.1,1.3-2.4,1.9-4c0.7-1.7,1.2-3.5,1.6-5.3l0.1-0.2
		c0.3-1.5,0.5-2.9,0.6-4.2l-0.2-0.1l0.2-0.4c0.1-2,0-4-0.3-6l-0.2-0.1l0.1-0.3c-0.3-1.9-0.8-3.8-1.5-5.7
		c-2.3-6.3-6.6-11.8-12.1-15.4c-5.4,3.6-9.5,8.7-11.8,14.8L49,42.2l-0.2,0.1c-2.3,0.7-4.6,1.6-6.7,2.6l-1,0.5l0.3-1
		c2.5-10.2,9-18.9,17.9-24.1l1.7-1l1.7,1c8.4,4.8,14.6,12.7,17.4,22l0.2,0.6h0c0.4,1.6,0.8,3.2,1,4.9c0,0.1,0,0.2,0,0.4l0,0.3
		c0.5,3.7,0.4,7.3-0.2,10.9c0,0.1,0,0.2-0.1,0.4l0,0.2c-0.3,1.7-0.7,3.4-1.2,5c-0.8,2.6-1.9,5-3.2,7.2c-1.3,2.2-2.8,4.3-4.7,6.4
		L71.7,78.8z M66.6,75.8c1.6,0.8,3.1,1.4,4.7,1.9c1.8-2,3.2-3.9,4.4-6c1.3-2.2,2.3-4.5,3.1-7.1c0.5-1.5,0.9-3.2,1.2-4.9l0-0.3
		c0-0.1,0-0.2,0.1-0.3c0.6-3.5,0.6-7,0.2-10.6l0-0.3c0-0.1,0-0.2,0-0.3c-0.3-1.9-0.7-3.7-1.2-5.4l-0.2-0.6h0
		c-2.8-8.8-8.8-16.2-16.7-20.8l-1.2-0.7l-1.2,0.7c-8.4,4.8-14.6,13-17.2,22.4c1.8-0.8,3.7-1.6,5.7-2.2c2.5-6.3,6.8-11.6,12.4-15.2
		l0.3-0.2l0.3,0.2c5.8,3.8,10.3,9.5,12.7,16.1c0.7,2,1.2,3.9,1.5,5.8l0.2,0.1l-0.1,0.3l0.1,0.8l0,0c0.2,1.8,0.3,3.6,0.2,5.4l0.2,0.1
		L75.8,55c-0.1,1.4-0.3,2.8-0.6,4.5l0,0.2c-0.4,2-1,3.8-1.7,5.5c-0.6,1.6-1.3,2.9-2,4.1C70.2,71.6,68.6,73.8,66.6,75.8z"/>
</g>
</svg>
