<?xml version="1.0" encoding="utf-8"?>
<!-- Generator: Adobe Illustrator 19.2.1, SVG Export Plug-In . SVG Version: 6.00 Build 0)  -->
<!DOCTYPE svg PUBLIC "-//W3C//DTD SVG 1.1//EN" "http://www.w3.org/Graphics/SVG/1.1/DTD/svg11.dtd">
<svg version="1.1" id="Calque_1" xmlns="http://www.w3.org/2000/svg" xmlns:xlink="http://www.w3.org/1999/xlink" x="0px" y="0px"
	 viewBox="0 0 121.9 121.9" style="enable-background:new 0 0 121.9 121.9;" xml:space="preserve">
<g>
	<path d="M60.9,121.9C27.3,121.9,0,94.5,0,60.9C0,27.3,27.3,0,60.9,0c33.6,0,60.9,27.3,60.9,60.9C121.9,94.5,94.5,121.9,60.9,121.9z
		 M60.9,3C29,3,3,29,3,60.9c0,32,26,57.9,57.9,57.9c32,0,57.9-26,57.9-57.9C118.9,29,92.9,3,60.9,3z"/>
</g>
<g>
	<path d="M83.7,49.9c0,4.4-1.7,7.2-3.8,8.9c-0.2-3.6-8.6-6.5-18.9-6.5c-10.3,0-18.7,2.9-18.9,6.5c-2.1-1.7-3.8-4.5-3.8-8.9
		c0-0.8,0-1.6-0.1-2.3c-0.2-5.1-1.2-8.6-2.3-10.9c2.6-0.6,5.6-1.6,8-3.1c2.7-1.8,4.5-4.1,6.1-6.2c2.5-3.2,4.1-5.4,8.6-5.3l4.9,0
		c4.4,0,6.1,2.1,8.5,5.3c1.6,2.1,3.4,4.4,6.1,6.2c2.4,1.5,5.4,2.5,8,3.1C84.7,39.4,83.7,43.5,83.7,49.9 M64.6,74l4-2.6l2.4,6.7
		L64.6,74z M54.7,67.7L54.7,67.7l7.8-0.1c0,0,0,0,0,0h4.8l0,0.1l-6.3,4L54.7,67.7z M50.9,78.1l2.4-6.7l4,2.6L50.9,78.1z M92.3,31.8
		c-2-0.2-7.8-1-11-3.2c-1.9-1.2-3.2-3-4.6-4.8c-2.6-3.4-5.8-7.6-13.2-7.6l-4.8,0c-7.8,0-11.9,5.8-13.3,7.6c0,0,0,0,0,0l0-0.1
		c-1.4,1.9-2.7,3.6-4.6,4.8c-3.3,2.1-9.1,3-11,3.2c-1.5,0.1-2.6,1.3-2.7,2.8v2.2c1.4,0.2,5.4,0.3,5.4,13.2h0v0.1
		c0,12.5,9.8,16.8,16.2,17.6l-12.4,34.2c-0.5,1.5,0.2,3.2,1.7,3.7c0.3,0.1,0.7,0.2,1,0.2c1.2,0,2.3-0.7,2.7-1.9l7.1-19.6L61,76.3
		l12.3,7.8l7.1,19.6c0.4,1.2,1.5,1.9,2.7,1.9c0.3,0,0.7-0.1,1-0.2c1.5-0.5,2.3-2.2,1.7-3.7L73.5,67.5c6.3-0.8,16-5.1,16-17.6
		c0-12.9,4-13,5.4-13.2v-2.1C94.9,33.1,93.7,32,92.3,31.8"/>
</g>
</svg>
