<?xml version="1.0" encoding="utf-8"?>
<!-- Generator: Adobe Illustrator 19.2.1, SVG Export Plug-In . SVG Version: 6.00 Build 0)  -->
<!DOCTYPE svg PUBLIC "-//W3C//DTD SVG 1.1//EN" "http://www.w3.org/Graphics/SVG/1.1/DTD/svg11.dtd">
<svg version="1.1" id="Calque_1" xmlns="http://www.w3.org/2000/svg" xmlns:xlink="http://www.w3.org/1999/xlink" x="0px" y="0px"
	 viewBox="0 0 121.9 121.9" style="enable-background:new 0 0 121.9 121.9;" xml:space="preserve">
<path d="M60.9,0C27.3,0,0,27.3,0,60.9c0,33.6,27.3,60.9,60.9,60.9s60.9-27.3,60.9-60.9C121.9,27.3,94.6,0,60.9,0z M60.9,118.9
	C29,118.9,3,92.9,3,60.9C3,29,29,3,60.9,3s57.9,26,57.9,57.9C118.9,92.9,92.9,118.9,60.9,118.9z"/>
<path d="M108.3,69.7c-0.2-0.8-0.4-1.4-0.3-2.4c0.1-1.1,0.1-2.5-0.3-3.8c-0.2-0.6-0.5-1.1-0.8-1.6c-0.1-0.1-0.2-0.3-0.2-0.4h-0.4
	l0.1-0.6v-0.4h0.2c0-0.1,0.1-0.1,0.1-0.2c0.2-0.5,0.5-1.1,0.6-1.9c0-1.2-0.3-2.4-0.5-3c-0.4-1.4-2.5-6-9.8-5.7l-0.5,0V33.3
	c0-0.6-0.4-1.2-1-1.4l-4.6-1.7l0.3-0.5c0.4-0.7,0.2-1.6-0.5-2c-9.1-5.7-20.1-5.9-29.4-0.6L61,27.2L60.7,27
	c-9.3-5.3-20.3-5.1-29.4,0.6c-0.7,0.4-0.9,1.3-0.5,2l0.3,0.5l-4.6,1.7c-0.6,0.2-1,0.8-1,1.4v16.3l-0.5,0c-7.4-0.3-9.4,4.3-9.8,5.7
	c-0.2,0.6-0.5,1.8-0.5,3c0,0.8,0.3,1.4,0.6,1.9c0,0.1,0.1,0.2,0.1,0.3L15,60.8l0,0l0.5,0.1c0,0,0,0,0,0l-0.1,0.3l-0.1,0
	c-0.1,0.1-0.2,0.3-0.3,0.5c-0.3,0.5-0.7,1-0.9,1.6c-0.4,1.3-0.3,2.7-0.3,4c0,0.8-0.1,1.5-0.3,2.3c-0.2,0.8-0.5,1.7-0.5,2.8
	c0,4,3.2,8.2,6,11.5c2.1,2.4,7,9.4,9.6,14c0.4,0.7,1.3,1,2,0.6l13.6-6.3c0.7-0.3,1-1,0.8-1.7c-0.5-2.1-1.5-4.9-2.4-7.9l-0.4-1.2
	l18.4,3.3c0.1,0,0.2,0,0.3,0h0c0.1,0,0.2,0,0.3,0l18.4-3.3l-0.4,1.2c-1,3-1.9,5.9-2.4,7.9c-0.2,0.7,0.2,1.4,0.8,1.7l13.6,6.3
	c0.7,0.3,1.6,0,2-0.6c2.6-4.6,7.5-11.6,9.6-14c2.8-3.3,6-7.5,6-11.5C108.8,71.4,108.5,70.5,108.3,69.7l0.5-0.1L108.3,69.7z
	 M62.5,29.7l0.3-0.1c8.1-4.6,17.7-4.5,25.7,0.3l0.5,0.3l-0.4,0.5c-0.1,0.1-0.1,0.1-0.1,0.2c-0.1,0.4-0.1,0.8,0,1.2
	c0.2,0.4,0.5,0.6,0.9,0.8l4.1,1.5v31.5l-1-1.6c-0.4-0.6-0.8-1.3-1.4-2c-2.2-2.5-7.1-7.1-10.1-6.8c-0.9,0.1-1.7,0.6-2.1,1.3
	c-1.9,3.2,0.1,7.6,2.1,11.5l0.5,0.9l-1-0.2c-5.8-1.1-11.7-0.2-17.1,2.3l-0.7,0.3V29.7z M28.6,34.3l4.1-1.5c0.4-0.1,0.7-0.4,0.9-0.8
	c0.2-0.4,0.2-0.8,0-1.2c0-0.1-0.1-0.1-0.1-0.2L33,30.1l0.5-0.3c8.2-4.8,17.5-4.9,25.7-0.3l0.3,0.1v41.9l-0.7-0.3
	c-5.4-2.6-11.3-3.4-17.1-2.3l-1,0.2l0.5-0.9c2-3.9,4-8.3,2.1-11.5c-0.5-0.8-1.2-1.3-2.1-1.3c-3-0.3-7.7,4.1-10.1,6.8
	c-0.6,0.7-1.1,1.4-1.4,2l-0.9,1.5l0-1.8V34.3z M30.7,95.3l-0.2-0.4c-2.8-4.6-7-10.5-9-12.9c-1.4-1.7-5.3-6.2-5.3-9.5
	c0-0.7,0.2-1.3,0.3-2c0.2-0.9,0.5-1.9,0.4-3.4c0-1-0.1-2,0.1-2.8c0.1-0.2,0.2-0.5,0.5-0.9c0.4-0.6,1-1.5,1-2.5c0-0.8-0.3-1.5-0.5-2
	c-0.2-0.4-0.3-0.6-0.3-0.7c0-0.6,0.1-1.4,0.3-2.1c0.4-1.1,1.7-3.8,6.7-3.6l0.5,0l0.1,14.7c0,0.8,0.6,1.4,1.4,1.5c0,0,0.1,0,0.1,0
	c0.1,0,0.1,0,0.2,0l0,0l0,0c3.2,0.1,4.2-1.6,5-3c0.3-0.6,0.6-1.1,1.1-1.6c1.9-2.2,5.3-5,6.9-5.6l0.5-0.2l0.1,0.5
	c0.6,2.2-1.5,6.3-2.8,8.7c-1.1,2.1-1.6,3.1-1.5,4c0.1,2.1,1.4,6.1,3.3,12.1c0.7,2.1,1.4,4.3,1.9,6.1l0.1,0.4L30.7,95.3z M61,81.7
	l-19.7-3.5l-0.1-0.3c-0.7-2.2-1.1-3.8-1.4-5l-0.1-0.5l0.5-0.1c6.8-1.8,13.9-0.7,20,3.1l0.1,0c0.1,0.1,0.2,0.1,0.3,0.1l0.1,0
	c0.1,0,0.3,0.1,0.4,0.1c0,0,0.1,0,0.1,0c0.1,0,0.2,0,0.3,0l0.2-0.1c0,0,0.1,0,0.1,0l0.1-0.1c6.1-3.8,13.2-4.9,19.9-3.1l0.5,0.1
	L82.1,73c-0.3,1.2-0.7,2.8-1.4,5l-0.1,0.3L61,81.7z M100.5,82c-2,2.4-6.2,8.2-9,12.9l-0.2,0.4L80,90.1l0.1-0.4
	c0.5-1.8,1.2-4,1.9-6.1c1.9-5.9,3.2-10,3.3-12.1c0-0.2,0-0.4,0-0.6c-0.2-0.8-0.7-1.9-1.5-3.4c-1.3-2.4-3.3-6.5-2.8-8.7l0.1-0.5
	l0.5,0.2c1.7,0.6,5.3,3.8,6.9,5.6c0.4,0.5,0.7,1,1.1,1.5c0.9,1.5,2,3.3,5.4,3.1c0.8-0.1,1.4-0.7,1.4-1.5l0.1-14.7l0.5,0
	c5-0.2,6.4,2.5,6.7,3.6c0.2,0.7,0.4,1.5,0.3,2c0,0.2-0.1,0.4-0.3,0.7c-0.3,0.6-0.6,1.2-0.6,2.1c0,1,0.6,1.8,1,2.5
	c0.3,0.4,0.4,0.7,0.5,0.9c0.2,0.7,0.2,1.8,0.1,2.9c-0.1,1.3,0.2,2.3,0.4,3.2c0.2,0.7,0.3,1.3,0.3,2C105.7,75.8,101.9,80.3,100.5,82z
	"/>
</svg>
