<?xml version="1.0" encoding="utf-8"?>
<!-- Generator: Adobe Illustrator 19.2.1, SVG Export Plug-In . SVG Version: 6.00 Build 0)  -->
<!DOCTYPE svg PUBLIC "-//W3C//DTD SVG 1.1//EN" "http://www.w3.org/Graphics/SVG/1.1/DTD/svg11.dtd">
<svg version="1.1" id="Calque_1" xmlns="http://www.w3.org/2000/svg" xmlns:xlink="http://www.w3.org/1999/xlink" x="0px" y="0px"
	 viewBox="0 0 123.6 123.6" style="enable-background:new 0 0 123.6 123.6;" xml:space="preserve">
<path d="M61.8,0C27.7,0,0,27.7,0,61.8c0,34.1,27.7,61.8,61.8,61.8s61.8-27.7,61.8-61.8C123.6,27.7,95.8,0,61.8,0z M61.8,120.6
	C29.4,120.6,3,94.2,3,61.8C3,29.4,29.4,3,61.8,3s58.8,26.4,58.8,58.8C120.6,94.2,94.2,120.6,61.8,120.6z"/>
<path d="M92.7,50.8c-0.3-0.4-0.6-0.7-0.9-1.1c-0.3-0.4-0.6-1.3-0.9-2.6c-0.4-1.9-1-4.2-2.6-6.2c-1.3-1.6-3-2.6-4.6-3.5
	c-1.3-0.8-2.7-1.6-3.2-2.5c-1-1.6-0.7-3.3-0.5-5c0.3-2,0.8-5.4-3.2-6.7c-1.5-0.5-2.9-0.7-4.1-0.7c-3.3,0-5.3,1.7-7.3,3.4
	c-1.7,1.4-3.5,3-6.7,4.3c-1.5,0.6-3.1,1-4.9,1.5c-4.2,1.1-8.9,2.4-12.1,5.7c-2.3,2.4-3.4,5-4.3,7.1c-0.6,1.3-1.1,2.4-1.6,2.9
	c-1,1-2.1,1.7-3,2.3c-2.5,1.7-4.8,3.2-4.7,7.9c0.1,1.8,1.4,2.8,4.1,3l0.8,0.1l-0.4,0.7c-0.5,1-0.7,1.6-0.7,1.8
	c-0.5,2.5,0.1,5,1.6,6.8c1.5,1.8,3.8,2.9,6.4,2.9h44.9c1.4,0,2.5,0.5,3.1,1.3c0.6,0.9,0.7,2.1,0.3,3.4l-4.4,13.6
	c-1,3.1-4.8,5.9-8.1,5.9H48.9c-3.4,0-7.5-2.7-8.8-5.8l-4.3-10.2c-0.3-0.7-1-1.2-1.8-1.2c-0.2,0-0.5,0-0.7,0.2c-0.5,0.2-0.8,0.6-1,1
	c-0.2,0.5-0.2,1,0,1.5l4.3,10.2c1.9,4.6,7.3,8.1,12.3,8.1h26.8c5,0,10.2-3.7,11.7-8.5l4.4-13.6c0.8-2.5,0.5-4.9-0.8-6.8
	c-0.1-0.1-0.2-0.2-0.3-0.3l-0.4-0.5l0.4-0.3c0.4-0.3,0.6-0.6,0.9-0.9c1.5-1.8,2.1-4.3,1.6-6.8c0-0.1-0.1-0.7-0.7-1.8L92.1,61
	l0.5-0.2c0.3-0.2,0.6-0.3,0.8-0.5C97.6,56.8,94.6,53.2,92.7,50.8l0.4-0.3l0,0L92.7,50.8l0.4-0.3l0,0L92.7,50.8z M88.5,67.7
	c-0.8,1-2,1.5-3.4,1.5l-13.9,0H39.8c-1.4,0-2.7-0.5-3.4-1.5c-0.8-0.9-1.1-2.2-0.8-3.6c0-0.1,0.3-1,1.4-2.5c0.2-0.2,0.3-0.4,0.3-0.7
	l0.1-0.4l0.4,0c1-0.1,2.1-0.2,3.3-0.3c1.8-0.2,3.4-0.3,4.9-0.5c0.9-0.1,1.7-0.1,2.5-0.1c2.2,0,3.5,0.3,5,0.6
	c1.8,0.4,3.9,0.8,7.5,0.8h0.3c3.6,0,5.7-0.4,7.4-0.8c1.6-0.3,3-0.6,5.3-0.6c0.7,0,1.4,0,2.2,0.1c2.1,0.1,4.4,0.5,6.6,0.9
	c1.7,0.3,3.3,0.5,4.7,0.7l0.2,0l0.1,0.2c0.7,1,1.1,1.7,1.3,2.1h0.1l0.1,0.4C89.6,65.4,89.3,66.7,88.5,67.7z M90.9,57.3
	c-0.2,0.1-0.7,0.3-1.7,0.3l-0.2,0c-0.2-0.1-0.5-0.1-0.8,0l-0.1,0l-0.1,0c-1.4-0.1-3-0.4-4.8-0.7c-2.3-0.4-4.7-0.8-7-0.9
	c-0.8,0-1.7-0.1-2.4-0.1c-2.8,0-4.4,0.3-6.1,0.7c-1.8,0.4-3.4,0.7-6.7,0.7l-0.3,0c-3.3,0-5.1-0.4-6.8-0.7c-1.6-0.3-3.2-0.7-5.7-0.7
	c-0.9,0-1.8,0-2.8,0.1c-1.6,0.1-3.3,0.3-5,0.5c-2.8,0.3-5.3,0.5-7.2,0.5c-0.5,0-0.8,0-1.1,0l-0.5,0l0.1-0.5c0.2-1.6,1.1-2.2,2.9-3.4
	l0.3,0.4L34.8,53c1-0.7,2.2-1.5,3.5-2.7c1.1-1,1.8-2.6,2.5-4.2c0.8-1.9,1.8-4.1,3.6-6c2.4-2.6,6.4-3.6,10.3-4.7
	c1.8-0.5,3.7-1,5.3-1.6c3.8-1.4,6-3.4,7.8-4.9c2-1.7,3-2.5,4.8-2.5c0.8,0,1.8,0.2,3,0.5c0.2,0.1,0.4,0.1,0.5,0.2l0.2,0.1l0,0.2
	c0.1,0.4,0,1.1-0.1,1.9c-0.3,2-0.7,4.7,1,7.5c1,1.7,2.8,2.8,4.6,3.8c1.3,0.8,2.7,1.6,3.5,2.6c1.1,1.3,1.5,3,1.8,4.6
	c0.4,1.5,0.7,3,1.6,4.1c0.3,0.4,0.7,0.8,1,1.2c1.3,1.7,2,2.5,1.9,3.1C91.7,56.5,91.4,56.9,90.9,57.3z"/>
<path d="M67.7,92.4c1,0,1.9-0.9,1.9-1.9V80.3c0-1-0.9-1.9-1.9-1.9s-1.9,0.9-1.9,1.9v10.3C65.8,91.6,66.6,92.4,67.7,92.4z"/>
<path d="M57.2,92.4c1,0,1.9-0.9,1.9-1.9V80.3c0-1-0.9-1.9-1.9-1.9s-1.9,0.9-1.9,1.9v10.3C55.3,91.6,56.2,92.4,57.2,92.4z"/>
<path d="M78.3,78.4c-0.1,0-0.1,0-0.2,0c-1,0-1.8,0.7-1.9,1.7L75,90.3c-0.1,1,0.6,2,1.7,2.1c1,0.1,2-0.6,2.1-1.7L80,80.5
	c0.1-0.5-0.1-1-0.4-1.4C79.3,78.7,78.8,78.4,78.3,78.4z"/>
<path d="M46,90.8c0.1,1,1.1,1.8,2.1,1.7c1-0.1,1.8-1.1,1.7-2.1L48.6,80c-0.1-1-0.9-1.7-1.9-1.7c-0.1,0-0.1,0-0.2,0
	c-0.5,0.1-1,0.3-1.3,0.7c-0.3,0.4-0.5,0.9-0.4,1.4L46,90.8z"/>
</svg>
