<?xml version="1.0" encoding="utf-8"?>
<!-- Generator: Adobe Illustrator 19.2.1, SVG Export Plug-In . SVG Version: 6.00 Build 0)  -->
<!DOCTYPE svg PUBLIC "-//W3C//DTD SVG 1.1//EN" "http://www.w3.org/Graphics/SVG/1.1/DTD/svg11.dtd">
<svg version="1.1" id="Calque_1" xmlns="http://www.w3.org/2000/svg" xmlns:xlink="http://www.w3.org/1999/xlink" x="0px" y="0px"
	 viewBox="0 0 121.9 121.9" style="enable-background:new 0 0 121.9 121.9;" xml:space="preserve">
<path d="M60.9,0C27.3,0,0,27.3,0,60.9c0,33.6,27.3,60.9,60.9,60.9c33.6,0,60.9-27.3,60.9-60.9C121.9,27.3,94.5,0,60.9,0z
	 M60.9,118.9C29,118.9,3,92.9,3,60.9C3,29,29,3,60.9,3c32,0,57.9,26,57.9,57.9C118.9,92.9,92.9,118.9,60.9,118.9z"/>
<path d="M50.8,33.3c0-5-4.1-9-9-9c-3.8,0-7.2,2.4-8.5,6l-0.1,0.4l-0.4-0.1c-0.4-0.1-0.7-0.2-1.1-0.2c-3.1,0-6.9,4.4-9.2,8.3
	c-0.3,0.4-0.3,1,0,1.4c0.3,0.4,0.8,0.7,1.3,0.6c1.5-0.2,6.6-1.1,9.6-3.1l0.3-0.2l0.2,0.4c1.6,2.9,4.6,4.7,7.9,4.7
	C46.7,42.3,50.8,38.3,50.8,33.3z M32.6,34.4L32.6,34.4c-0.5,1.2-3.4,2.1-5,2.6l-1.2,0.3l0.8-0.9c1.1-1.3,3.1-3.4,4.4-3.4
	c0.3,0,0.6,0.2,0.9,0.7C32.7,34,32.7,34.2,32.6,34.4z M35.5,32.2c0.5-3.1,3.2-5.3,6.3-5.3c0.1,0,0.2,0,0.3,0c0,0,0.1,0,0.1,0l0.5,0
	l-0.2,0.5c-0.6,1.5-2.3,4.2-6.6,5.1l-0.5,0.1L35.5,32.2z M41.7,39.6c-2.5,0-4.8-1.5-5.8-3.8l-0.2-0.4l0.5-0.1c5.7-1.1,8-4.8,8.8-6.9
	l0.2-0.5l0.4,0.3c1.6,1.2,2.5,3.1,2.5,5C48.1,36.8,45.2,39.6,41.7,39.6z"/>
<path d="M34.6,47.7l0.3,0.1l-4.7,11.9c-0.5,1.4-0.4,2.9,0.3,4.2c0.7,1.3,2.1,2.1,3.5,2.3l3.1,0.4l-2.8,33.9
	c-0.1,1.3,0.3,2.5,1.1,3.5c0.8,1,2,1.6,3.2,1.7c1.9,0.2,3.8-0.9,4.6-2.6l0.3-0.6L44,103c1,1.7,2.8,2.6,4.7,2.4
	c2.6-0.3,4.4-2.7,4.1-5.3l-4.4-32.1l0.4,0c2.2-0.2,3.9-1.9,4.2-4.1c0.2-1.3-0.2-2.5-1-3.5c-0.8-1-1.9-1.6-3.2-1.8l-1.8-0.2l-0.2-1.7
	l0.1-0.1c1.6-1.5,2.6-3.5,2.6-5.7c0-4.1-3.4-7.6-7.6-7.6c0,0-0.1,0-0.1,0c-4.6,0-6.2,3.1-6.5,3.8L35,47.7L34.6,47.7L34.6,47.7
	L34.6,47.7z M41.2,101c-0.1,1.1-1,1.9-2.1,1.9c-0.1,0-0.1,0-0.2,0c-1.1-0.1-2-1.1-1.9-2.2l2.8-33.8l4.1,0.5L41.2,101z M50.2,100.3
	c0.1,1.1-0.7,2.2-1.8,2.3c-0.1,0-0.2,0-0.3,0c-1,0-1.9-0.8-2.1-1.8l-1.3-10.3l1.5-19L50.2,100.3z M37.2,49.5
	c0.2-0.4,1.7-3.7,4.9-3.7c2.7,0,4.8,2.2,4.8,4.8c0,2.4-1.7,4.3-4,4.7L42,55.5c-0.9,0-1.7-0.2-2.4-0.6l-2.1,4.8l11.1,1.4
	c1.1,0.1,2,1.2,1.8,2.3c-0.1,1-1,1.8-2.1,1.8c-0.1,0-0.2,0-0.3,0l-13.7-1.7c-0.6-0.1-1.2-0.4-1.5-1c-0.3-0.6-0.4-1.2-0.1-1.8
	L37.2,49.5z"/>
<path d="M99.7,54.2L99.7,54.2c-0.4-2.3-2.2-4-4.4-4c-0.3,0-0.6,0-0.9,0.1l-7.8,0.6l-2.2-6.1l0-0.1c0.2-0.7,0.2-1.3,0.2-1.9
	c0-3.1-1.8-6-4.7-7.3l-0.8-0.4l0.8-0.3c3.8-1.4,6.4-5.1,6.4-9.1c0-5.4-4.4-9.8-9.8-9.8s-9.8,4.4-9.8,9.8c0,4.1,2.6,7.7,6.4,9.1
	l0.8,0.3l-0.8,0.4c-0.8,0.4-1.5,0.8-2,1.3L71,37.1l-0.4-0.2c-0.3-0.2-0.5-0.3-0.8-0.5l-0.2-0.1V35c0-0.7-0.6-1.3-1.3-1.3h-5.3
	c-0.7,0-1.4,0.6-1.5,1.4l-2.2,21.4c0,0.3,0.1,0.7,0.3,0.9c0.2,0.2,0.5,0.4,0.9,0.3l0.7,0l0.1,0.3c0.2,1.2,0.9,2.3,2,2.9l6.7,4.3
	l-0.1,0.3l-8.2,35c-0.3,1.2-0.1,2.4,0.6,3.4c0.7,1,1.7,1.8,2.9,2c0.3,0.1,0.6,0.1,0.9,0.1l0.2,0c2-0.1,3.8-1.5,4.2-3.5L75.1,83
	l7.4,19.8c0.7,1.8,2.5,3,4.5,3c0.4,0,0.8,0,1.2-0.1c1.3-0.3,2.5-1.2,3.1-2.3c0.6-1.1,0.6-2.3,0.2-3.4L80.9,71.2l0.4-0.1
	c1.4-0.3,2.5-1.1,3.2-2.3c1.3-2.2,0.7-5-1.4-6.4l-1.5-1l0.3-0.7c0.9,0.4,1.7,0.5,2.6,0.3l11.5-1.4C98.5,59.1,100,56.7,99.7,54.2z
	 M69.5,25.7c0-3.9,3.2-7.1,7.1-7.1c3.9,0,7.1,3.2,7.1,7.1s-3.2,7.1-7.1,7.1C72.6,32.8,69.5,29.6,69.5,25.7z M73.4,38.5
	c0.1-0.1,0.2-0.1,0.2-0.2c0.1-0.1,0.2-0.1,0.3-0.2l0.1-0.1c0.3-0.1,0.5-0.3,0.8-0.3c0.1,0,0.2-0.1,0.3-0.1c0.3-0.1,0.6-0.1,0.9-0.2
	L76,37.5l0.9,0.1c2.8,0.2,5,2.5,5,5.3c0,0.8-1.9,6.8-2.3,8.1l0,0c-0.1,0.6-0.6,2.2-2.2,7.3l-0.1,0.5l-5.5-3.5l0.4-0.3
	c2.4-2.1,3.9-6.3,3.9-8.3c0-2-1-5.3-2.7-7.3L73,38.8L73.4,38.5z M75.5,69.1l-7.6,32.7c-0.2,0.8-0.9,1.4-1.8,1.4l-0.1,0
	c-0.1,0-0.3,0-0.4,0c-0.5-0.1-1-0.4-1.2-0.8c-0.3-0.4-0.3-0.9-0.2-1.3l8-34.3l3.4,2.2L75.5,69.1z M89,100.7c0.2,0.4,0.1,0.8-0.1,1.2
	c-0.3,0.5-0.7,0.8-1.3,1c-0.2,0-0.4,0.1-0.6,0.1c-0.9,0-1.7-0.5-2-1.2l-8.8-23.5l1.7-7.2L89,100.7z M81.7,64.7
	c0.9,0.5,1.1,1.8,0.5,2.8c-0.4,0.7-1,1.1-1.7,1.1c-0.2,0-0.4,0-0.6-0.1c-0.1,0-0.2-0.1-0.3-0.1l-15.1-9.7c-0.8-0.5-1.1-1.7-0.6-2.7
	l7.4-14.9l0.4,0.5c0.8,1.2,1.3,2.6,1.5,4.1l0,0.2L73.1,46c-0.1,0.2-3.5,7-5,10L81.7,64.7z M95.5,57L84,58.5c-0.1,0-0.2,0-0.3,0
	c-0.7,0-1.4-0.5-1.7-1.3l-0.8-2.7l1.7-5.8l1.9,5.4l10.1-1.2c0.1,0,0.2,0,0.3,0c0.9,0,1.6,0.7,1.8,1.7C97.2,55.7,96.5,56.8,95.5,57
	L95.5,57z"/>
</svg>
