<?xml version="1.0" encoding="utf-8"?>
<!-- Generator: Adobe Illustrator 19.2.1, SVG Export Plug-In . SVG Version: 6.00 Build 0)  -->
<!DOCTYPE svg PUBLIC "-//W3C//DTD SVG 1.1//EN" "http://www.w3.org/Graphics/SVG/1.1/DTD/svg11.dtd">
<svg version="1.1" id="Calque_1" xmlns="http://www.w3.org/2000/svg" xmlns:xlink="http://www.w3.org/1999/xlink" x="0px" y="0px"
	 viewBox="0 0 72.7 70.6" style="enable-background:new 0 0 72.7 70.6;" xml:space="preserve">
<path d="M65.6,7.1c-0.4,0-0.7,0.3-0.7,0.7V10c0,0.4,0.3,0.7,0.7,0.7c0.4,0,0.7-0.3,0.7-0.7V7.9C66.3,7.5,66,7.1,65.6,7.1 M65.6,24.1
	c-0.4,0-0.7,0.3-0.7,0.7v4.9c0,0.4,0.3,0.7,0.7,0.7c0.4,0,0.7-0.3,0.7-0.7v-4.9C66.3,24.4,66,24.1,65.6,24.1 M65.6,14.2
	c-0.4,0-0.7,0.3-0.7,0.7v4.9c0,0.4,0.3,0.7,0.7,0.7c0.4,0,0.7-0.3,0.7-0.7V15C66.3,14.6,66,14.2,65.6,14.2 M65.6,33.9
	c-0.4,0-0.7,0.3-0.7,0.7v4.9c0,0.4,0.3,0.7,0.7,0.7c0.4,0,0.7-0.3,0.7-0.7v-4.9C66.3,34.2,66,33.9,65.6,33.9 M65.6,43.7
	c-0.4,0-0.7,0.3-0.7,0.7v1.8l-1.5,0.9c-0.4,0.2-0.5,0.7-0.3,1c0.1,0.2,0.4,0.4,0.6,0.4c0.1,0,0.3,0,0.4-0.1l2.3-1.3v-2.6
	C66.3,44,66,43.7,65.6,43.7 M59.6,49.2L56,51.4c-0.4,0.2-0.5,0.7-0.3,1c0.1,0.2,0.4,0.4,0.6,0.4c0.1,0,0.3,0,0.4-0.1l3.7-2.1
	c0.4-0.2,0.5-0.7,0.3-1C60.4,49.1,60,49,59.6,49.2 M52.3,53.5l-3.7,2.1c-0.4,0.2-0.5,0.7-0.3,1c0.1,0.2,0.4,0.4,0.6,0.4
	c0.1,0,0.3,0,0.4-0.1l3.7-2.1c0.3-0.2,0.5-0.6,0.3-1S52.6,53.3,52.3,53.5 M44.9,57.8l-3.7,2.1c-0.3,0.2-0.5,0.6-0.3,1
	c0.1,0.2,0.4,0.4,0.6,0.4c0.1,0,0.2,0,0.4-0.1l3.7-2.1c0.3-0.2,0.5-0.7,0.3-1C45.7,57.7,45.3,57.6,44.9,57.8 M37.6,62.1L36,62.9
	l-1.4-1c-0.3-0.2-0.8-0.1-1,0.2s-0.1,0.8,0.2,1l2.2,1.5l2.3-1.3c0.3-0.2,0.5-0.7,0.3-1C38.3,62,37.9,61.9,37.6,62.1 M12.7,47
	c-0.3-0.2-0.8-0.1-1,0.2s-0.1,0.8,0.2,1l3.7,2.5c0.1,0.1,0.3,0.1,0.4,0.1c0.2,0,0.5-0.1,0.6-0.3c0.2-0.3,0.1-0.8-0.2-1L12.7,47z
	 M20,52c-0.3-0.2-0.8-0.1-1,0.2s-0.1,0.8,0.2,1l3.7,2.5c0.1,0.1,0.3,0.1,0.4,0.1c0.2,0,0.5-0.1,0.6-0.3c0.2-0.3,0.1-0.8-0.2-1L20,52
	z M27.3,57c-0.3-0.2-0.8-0.1-1,0.2s-0.1,0.8,0.2,1l3.7,2.5c0.1,0.1,0.3,0.1,0.4,0.1c0.2,0,0.5-0.1,0.6-0.3c0.2-0.3,0.1-0.8-0.2-1
	L27.3,57z M7.5,43.5v-1.8c0-0.4-0.3-0.7-0.7-0.7C6.4,41,6,41.3,6,41.7v2.6l2.1,1.5c0.1,0.1,0.3,0.1,0.4,0.1c0.2,0,0.5-0.1,0.6-0.3
	c0.2-0.3,0.1-0.8-0.2-1L7.5,43.5z M6.8,28.9c0.4,0,0.7-0.3,0.7-0.7v-4.5c0-0.4-0.3-0.7-0.7-0.7c-0.4,0-0.7,0.3-0.7,0.7v4.5
	C6,28.6,6.4,28.9,6.8,28.9 M6.8,37.9c0.4,0,0.7-0.3,0.7-0.7v-4.5c0-0.4-0.3-0.7-0.7-0.7c-0.4,0-0.7,0.3-0.7,0.7v4.5
	C6,37.6,6.4,37.9,6.8,37.9 M6.8,19.8c0.4,0,0.7-0.3,0.7-0.7v-4.5c0-0.4-0.3-0.7-0.7-0.7c-0.4,0-0.7,0.3-0.7,0.7v4.5
	C6,19.5,6.4,19.8,6.8,19.8 M6.8,10.8c0.4,0,0.7-0.3,0.7-0.7V7.9c0-0.4-0.3-0.7-0.7-0.7C6.4,7.1,6,7.5,6,7.9v2.2
	C6,10.5,6.4,10.8,6.8,10.8 M70.8,44.2c0,2.1-1.5,4.9-3.2,6.1L41.2,67.9c-0.9,0.6-2.1,0.9-3.5,0.9h-2.8c-1.3,0-2.6-0.3-3.5-0.9
	L5.1,50.2c-1.8-1.2-3.2-4-3.2-6.1V4.3c0-1.5,0.9-2.5,2.3-2.5c0.3,0,0.5,0,0.8,0.1c5.9,1.5,17.7,3.9,31.4,3.9s25.5-2.4,31.4-3.9
	c0.3-0.1,0.6-0.1,0.8-0.1c1.4,0,2.3,1,2.3,2.5v39.9H70.8z M68.6,0c-0.4,0-0.8,0.1-1.3,0.2C61.5,1.6,49.8,4,36.3,4s-25.2-2.4-31-3.8
	C4.9,0.1,4.5,0,4.1,0C1.7,0,0,1.8,0,4.3v39.9c0,2.7,1.8,6.1,4.1,7.6l26.4,17.6c1.2,0.8,2.8,1.2,4.4,1.2h2.9c1.7,0,3.3-0.4,4.4-1.2
	l26.4-17.6c2.3-1.5,4.1-4.9,4.1-7.6V4.3C72.7,1.8,71,0,68.6,0"/>
<path d="M35.2,38.7L35.2,38.7C35.1,38.6,35.1,38.6,35.2,38.7L35.2,38.7z M33.3,29.3c0.2-0.2,1.3-2.5,1.3-2.5c-0.1,0-0.2,0-0.2,0.2
	c1.6-2.7,3.8-5.3,5.8-7.7c0.6-0.7,4.3-5.6,4.1-2l0,0c0,0.2,0,0.1,0,0c-0.2,2.6-1.6,5.1-3.1,7.2c-0.7,1.1-1.6,2.1-2.5,3.1
	c-0.4,0.4-0.9,0.8-1.3,1.2c-0.3,0.3-1,0.7-1.4,1.1c0.3-0.3,1-0.7,1.3-0.9c0.6-0.5,1.2-1.1,1.8-1.7c0.9-1,1.8-2,2.5-3.1
	c-2.3,3.4-5.4,6.4-9.2,7.9c0.3-0.2,1-0.6,1-0.6c-0.1-0.1-1.6,0.6-1.7,0.7C32.3,31.3,32.8,30.3,33.3,29.3 M47.2,45.1
	c-0.1-1-0.4-0.5-0.8-0.1c-0.6,0.7-1.8,1.4-2.8,1.4c-0.4,0-0.7-0.1-1.1-0.3C42.3,46,41,45.2,41,45.3s0.1,0.2,0.1,0.3
	c-0.6-0.5-1.3-1.5-1.9-2.1l-2.6-3c-0.3-0.4-2.7-3.8-3.8-5.5l1.2,2.1c-0.7-1-1.3-2.1-1.9-3.3c1.9,0.1,4.1-1.3,5.6-2.3
	c1.4-0.9,2.4-2.4,3.6-3.7c2.4-2.5,4.6-5.6,5.3-9.1c-0.9,4.9-3.8,8.7-7.4,11.8c1.2-0.3,2.4-1.7,3.2-2.5c0.9-0.9,1.8-1.9,2.5-3
	c0.9-1.2,1.6-2.6,2.2-4c0.2-0.6,1-2.2,0.9-3c0,0-0.1,0.3-0.2,0.4c0.1-0.6,0.2-1.2,0.1-1.9c0,0.2,0.1,0.4,0.1,0.4c0.1,0,0-0.5,0-0.7
	c0,0,0-0.3,0-0.2c-0.1-1.8-1.8-3.9-3.7-3.4c-1.2,0.3-2.3,1.8-3.1,2.6c-0.5,0.5-1,1-1.5,1.6c-0.3,0.4-1.2,1.1-1.3,1.6c0,0,0,0,0.1,0
	l-0.4,0.8c0,0,0.3-0.5,0.3-0.6c-0.2,0.1-0.5,0.7-0.5,0.7c-1,1.3-2.2,2.6-3.2,4c-1.1,1.6-2,3.3-2.8,5c0.4-1.7,1.1-3.4,1.7-5l-0.9,1.9
	l0.4-0.9c-1.2,2.3-2.3,4.7-3,7.1c1.5-5,3.6-10.3,6.9-15.7c-0.1,0.2-0.2,0.5-0.2,0.5c0.1,0,0.9-1.4,0.8-1.5L37.5,15
	c0.2-0.4,0.3-0.6,0.1-1.2c-0.2-0.6-0.8-1.6-1.6-1.3c-0.5,0.2-0.9,1.1-1.1,1.5c-0.1,0.2-0.1,0.5-0.3,0.6c-0.2,0.2-0.4,0.3-0.6,0.6
	c-0.5,0.7-0.8,1.6-1.2,2.5c-0.2,0.4-2.2,4.9-2.2,4.9c0.1,0,0.1-0.1,0.1-0.2c-0.1,0.3-0.3,0.7-0.4,1c0,0,0.1-0.3,0-0.3
	c-0.3-0.1-1.5,3-1.5,3.3c-0.1,0.7-0.3,1.3-0.6,2.1c-0.2,0.4-0.4,0.9-0.5,1.3c0,0-0.2,1,0,0.6c0,0.1,0,0.2-0.1,0.3v-0.1
	c-0.1,0-0.3,1.2-0.4,1.3c-0.3,0.6-0.6,1.1-0.8,1.7c-0.6,1.6-0.8,3.2-1.2,4.8c-0.3,1.2-1.1,3.2-0.5,4.4c0.5,1.2,2.3,1.1,3.1,0.2
	c0,0.1,0,0.1,0.1,0.1c0.4-2.8,1.5-5.6,2.6-8.3c0.2,0.4,0.1,0.6,0.3,1.1c0.2,0.7,0.7,1.4,1,2.1c0.1,0.3,1.8,3.6,1.9,3.5
	c0-0.1,0-0.1,0-0.2c0.1,0.3,0.3,0.5,0.4,0.7c0,0-0.1-0.2-0.2-0.1c-0.3,0.2,1.3,2.4,1.5,2.6c0.4,0.5,0.8,0.9,1.1,1.4
	c0.2,0.3,0.4,0.6,0.7,0.8c0,0,0.5,0.4,0.4,0.2l0.1,0.1c0,0,0,0-0.1,0c0,0.1,1.8,1.8,1.9,1.9c0.7,0.4,1.4,0.7,2.2,0.6
	c2.1-0.2,3.8-2,5-3.6C47.1,45.8,47.3,45.5,47.2,45.1"/>
</svg>
