<?xml version="1.0" encoding="utf-8"?>
<!-- Generator: Adobe Illustrator 19.2.1, SVG Export Plug-In . SVG Version: 6.00 Build 0)  -->
<!DOCTYPE svg PUBLIC "-//W3C//DTD SVG 1.1//EN" "http://www.w3.org/Graphics/SVG/1.1/DTD/svg11.dtd">
<svg version="1.1" id="Calque_1" xmlns="http://www.w3.org/2000/svg" xmlns:xlink="http://www.w3.org/1999/xlink" x="0px" y="0px"
	 viewBox="0 0 141.7 137.7" style="enable-background:new 0 0 141.7 137.7;" xml:space="preserve">
<path d="M127.9,13.9c-0.8,0-1.4,0.6-1.4,1.4v4.3c0,0.8,0.6,1.4,1.4,1.4c0.8,0,1.4-0.6,1.4-1.4v-4.3
	C129.3,14.5,128.7,13.9,127.9,13.9 M127.9,46.9c-0.8,0-1.4,0.6-1.4,1.4v9.6c0,0.8,0.6,1.4,1.4,1.4c0.8,0,1.4-0.6,1.4-1.4v-9.6
	C129.3,47.5,128.7,46.9,127.9,46.9 M127.9,27.8c-0.8,0-1.4,0.6-1.4,1.4v9.6c0,0.8,0.6,1.4,1.4,1.4c0.8,0,1.4-0.6,1.4-1.4v-9.6
	C129.3,28.4,128.7,27.8,127.9,27.8 M127.9,66c-0.8,0-1.4,0.6-1.4,1.4V77c0,0.8,0.6,1.4,1.4,1.4c0.8,0,1.4-0.6,1.4-1.4v-9.6
	C129.3,66.7,128.7,66,127.9,66 M127.9,85.2c-0.8,0-1.4,0.6-1.4,1.4v3.5l-3,1.7c-0.7,0.4-0.9,1.3-0.5,2c0.3,0.5,0.7,0.7,1.2,0.7
	c0.2,0,0.5-0.1,0.7-0.2l4.4-2.6v-5.1C129.3,85.8,128.7,85.2,127.9,85.2 M116.3,96l-7.2,4.2c-0.7,0.4-0.9,1.3-0.5,2
	c0.3,0.5,0.7,0.7,1.2,0.7c0.2,0,0.5-0.1,0.7-0.2l7.2-4.2c0.7-0.4,0.9-1.3,0.5-1.9C117.9,95.8,117,95.6,116.3,96 M102,104.3l-7.2,4.2
	c-0.7,0.4-0.9,1.3-0.5,2c0.3,0.5,0.7,0.7,1.2,0.7c0.2,0,0.5-0.1,0.7-0.2l7.2-4.2c0.7-0.4,0.9-1.3,0.5-2
	C103.5,104.2,102.6,103.9,102,104.3 M87.6,112.7l-7.2,4.2c-0.7,0.4-0.9,1.3-0.5,2c0.3,0.5,0.8,0.7,1.2,0.7c0.2,0,0.5-0.1,0.7-0.2
	l7.2-4.2c0.7-0.4,0.9-1.3,0.5-2C89.1,112.5,88.3,112.3,87.6,112.7 M73.2,121.1l-2.9,1.7l-2.8-1.9c-0.6-0.4-1.5-0.3-2,0.4
	c-0.4,0.7-0.3,1.5,0.4,2l4.3,2.9l4.5-2.6c0.7-0.4,0.9-1.3,0.5-2C74.8,120.9,73.9,120.6,73.2,121.1 M24.7,91.7
	c-0.6-0.4-1.5-0.3-2,0.4c-0.4,0.7-0.3,1.5,0.4,2l7.1,4.9c0.2,0.2,0.5,0.2,0.8,0.2c0.4,0,0.9-0.2,1.2-0.6c0.4-0.7,0.3-1.6-0.4-2
	L24.7,91.7z M39,101.4c-0.6-0.4-1.5-0.3-2,0.4c-0.4,0.7-0.3,1.5,0.4,2l7.1,4.9c0.2,0.2,0.5,0.2,0.8,0.2c0.5,0,0.9-0.2,1.2-0.6
	c0.4-0.7,0.3-1.5-0.4-2L39,101.4z M53.2,111.2c-0.6-0.4-1.5-0.3-2,0.4c-0.4,0.7-0.3,1.5,0.4,2l7.1,4.9c0.2,0.2,0.5,0.2,0.8,0.2
	c0.4,0,0.9-0.2,1.2-0.6c0.4-0.7,0.3-1.5-0.4-2L53.2,111.2z M14.6,84.9v-3.5c0-0.8-0.6-1.4-1.4-1.4c-0.8,0-1.4,0.6-1.4,1.4v5l4.2,2.8
	c0.2,0.2,0.5,0.3,0.8,0.3c0.5,0,0.9-0.2,1.2-0.6c0.4-0.7,0.3-1.6-0.4-2L14.6,84.9z M13.2,56.3c0.8,0,1.4-0.6,1.4-1.4v-8.8
	c0-0.8-0.6-1.4-1.4-1.4c-0.8,0-1.4,0.6-1.4,1.4v8.8C11.8,55.7,12.4,56.3,13.2,56.3 M13.2,74c0.8,0,1.4-0.7,1.4-1.4v-8.8
	c0-0.8-0.6-1.4-1.4-1.4c-0.8,0-1.4,0.6-1.4,1.4v8.8C11.8,73.3,12.4,74,13.2,74 M13.2,38.7c0.8,0,1.4-0.6,1.4-1.4v-8.8
	c0-0.8-0.6-1.4-1.4-1.4c-0.8,0-1.4,0.6-1.4,1.4v8.8C11.8,38.1,12.4,38.7,13.2,38.7 M13.2,21.1c0.8,0,1.4-0.6,1.4-1.4v-4.3
	c0-0.8-0.6-1.4-1.4-1.4c-0.8,0-1.4,0.6-1.4,1.4v4.3C11.8,20.4,12.4,21.1,13.2,21.1 M138.2,86.1c0,4.1-2.9,9.6-6.3,11.8l-51.5,34.4
	c-1.7,1.1-4.1,1.7-6.7,1.7h-5.6c-2.6,0-5.1-0.6-6.7-1.7L9.9,98c-3.4-2.3-6.3-7.7-6.3-11.8V8.4c0-2.9,1.7-4.8,4.4-4.8
	c0.5,0,1,0.1,1.6,0.2c11.4,2.8,34.6,7.6,61.2,7.6s49.8-4.8,61.2-7.6c0.6-0.1,1.1-0.2,1.6-0.2c2.7,0,4.4,1.9,4.4,4.8v77.7H138.2z
	 M133.7,0c-0.8,0-1.6,0.1-2.5,0.3C120,3.1,97.1,7.8,70.9,7.8c-26.3,0-49.1-4.7-60.4-7.5C9.6,0.1,8.8,0,8,0C3.3,0,0,3.4,0,8.4v77.8
	C0,91.5,3.5,98,7.9,101l51.5,34.4c2.3,1.6,5.4,2.4,8.7,2.4h5.6c3.3,0,6.4-0.9,8.7-2.4l51.5-34.4c4.4-3,7.9-9.5,7.9-14.8V8.4
	C141.7,3.4,138.4,0,133.7,0"/>
</svg>
