<?xml version="1.0" encoding="utf-8"?>
<!-- Generator: Adobe Illustrator 19.2.1, SVG Export Plug-In . SVG Version: 6.00 Build 0)  -->
<!DOCTYPE svg PUBLIC "-//W3C//DTD SVG 1.1//EN" "http://www.w3.org/Graphics/SVG/1.1/DTD/svg11.dtd">
<svg version="1.1" id="Calque_1" xmlns="http://www.w3.org/2000/svg" xmlns:xlink="http://www.w3.org/1999/xlink" x="0px" y="0px"
	 viewBox="0 0 121.9 121.9" style="enable-background:new 0 0 121.9 121.9;" xml:space="preserve">
<g>
	<path d="M60.9,121.9C27.3,121.9,0,94.6,0,60.9S27.3,0,60.9,0c33.6,0,60.9,27.3,60.9,60.9S94.6,121.9,60.9,121.9z M60.9,3
		C29,3,3,29,3,60.9s26,57.9,57.9,57.9c32,0,57.9-26,57.9-57.9S92.9,3,60.9,3z"/>
</g>
<g>
	<path d="M36.9,49.5c-0.6-0.8-1.6-1-2.4-0.4c-0.8,0.6-1,1.6-0.4,2.4l2.5,3.6c0.3,0.5,0.9,0.7,1.4,0.7c0.3,0,0.7-0.1,1-0.3
		c0.8-0.6,1-1.6,0.4-2.4L36.9,49.5z M60.9,41.2c-1,0-1.7,0.8-1.7,1.7v4.4c0,1,0.8,1.7,1.7,1.7s1.7-0.8,1.7-1.7V43
		C62.7,42,61.9,41.2,60.9,41.2 M87.4,49.1c-0.8-0.6-1.9-0.4-2.4,0.4l-2.5,3.6c-0.6,0.8-0.4,1.9,0.4,2.4c0.3,0.2,0.7,0.3,1,0.3
		c0.5,0,1.1-0.3,1.4-0.7l2.5-3.6C88.4,50.7,88.2,49.7,87.4,49.1 M94.4,70.7C94.3,70.7,94.3,70.7,94.4,70.7c-0.1-0.1-0.2-0.2-0.3-0.3
		c-0.4-0.5-0.9-1.1-1.4-1.6c-0.2-0.2-0.4-0.4-0.6-0.6c-0.4-0.4-0.7-0.8-1.1-1.2c-0.2-0.2-0.5-0.5-0.7-0.7c-0.4-0.3-0.7-0.7-1.1-1
		c-0.3-0.2-0.5-0.5-0.8-0.7c-0.4-0.3-0.7-0.6-1.1-0.9c-0.3-0.2-0.6-0.4-0.9-0.6c-0.4-0.3-0.7-0.5-1.1-0.8c-0.3-0.2-0.6-0.4-0.9-0.6
		c-0.4-0.2-0.8-0.5-1.1-0.7c-0.3-0.2-0.6-0.4-1-0.6c-0.4-0.2-0.8-0.4-1.2-0.7c-0.3-0.2-0.7-0.3-1-0.5c-0.4-0.2-0.8-0.4-1.2-0.6
		c-0.3-0.2-0.7-0.3-1-0.5c-0.4-0.2-0.8-0.3-1.2-0.5c-0.3-0.1-0.7-0.3-1-0.4c-0.4-0.2-0.9-0.3-1.3-0.4c-0.3-0.1-0.7-0.2-1.1-0.3
		c-0.4-0.1-0.9-0.2-1.3-0.4c-0.4-0.1-0.7-0.2-1.1-0.3c-0.5-0.1-0.9-0.2-1.4-0.3c-0.3-0.1-0.7-0.1-1-0.2c-0.5-0.1-1-0.2-1.5-0.2
		c-0.3,0-0.7-0.1-1-0.1c-0.5-0.1-1.1-0.1-1.7-0.2c-0.3,0-0.6-0.1-0.8-0.1c-0.8,0-1.7-0.1-2.5-0.1s-1.7,0-2.5,0.1
		c-0.3,0-0.6,0-0.8,0.1c-0.6,0-1.1,0.1-1.7,0.2c-0.3,0-0.7,0.1-1,0.1c-0.5,0.1-1,0.1-1.5,0.2c-0.3,0.1-0.7,0.1-1,0.2
		c-0.5,0.1-0.9,0.2-1.4,0.3c-0.4,0.1-0.7,0.2-1.1,0.3c-0.4,0.1-0.9,0.2-1.3,0.4c-0.4,0.1-0.7,0.2-1.1,0.3c-0.4,0.1-0.9,0.3-1.3,0.4
		c-0.4,0.1-0.7,0.3-1,0.4c-0.4,0.2-0.8,0.3-1.2,0.5c-0.3,0.1-0.7,0.3-1,0.5c-0.4,0.2-0.8,0.4-1.2,0.6c-0.3,0.2-0.7,0.3-1,0.5
		c-0.4,0.2-0.8,0.4-1.2,0.6c-0.3,0.2-0.6,0.4-1,0.6c-0.4,0.2-0.8,0.5-1.1,0.7c-0.3,0.2-0.6,0.4-0.9,0.6c-0.4,0.3-0.7,0.5-1.1,0.8
		c-0.3,0.2-0.6,0.4-0.9,0.7c-0.4,0.3-0.7,0.6-1.1,0.9c-0.3,0.2-0.6,0.5-0.8,0.7c-0.4,0.3-0.7,0.6-1,1c-0.3,0.2-0.5,0.5-0.8,0.7
		c-0.4,0.4-0.7,0.7-1.1,1.1c-0.2,0.2-0.5,0.5-0.7,0.7c-0.4,0.4-0.8,0.9-1.2,1.4c-0.1,0.2-0.3,0.3-0.4,0.5c0,0,0,0,0,0
		c-8.1-13.4-7.1-26.2,3-34.5c4.2-3.5,9.2-5.4,14.4-5.4c5,0,10.1,1.7,15,5c0.6,0.4,1.3,0.4,1.9,0c5-3.3,10-5,15-5
		c5.2,0,10.2,1.9,14.4,5.4C101.4,44.5,102.5,57.3,94.4,70.7 M89.5,77.5c-1.3,1.5-2.6,3-4,4.4c-3.2-10.5-13-18.2-24.6-18.2
		c-11.6,0-21.4,7.7-24.6,18.2c-1.4-1.4-2.7-2.8-4-4.4c-1-1.2-1.9-2.4-2.8-3.7c0.1-0.2,0.3-0.3,0.4-0.5c0.2-0.3,0.4-0.6,0.7-0.8
		c0.3-0.3,0.5-0.6,0.8-1c0.2-0.3,0.5-0.5,0.7-0.8c0.3-0.3,0.6-0.6,0.9-0.9c0.3-0.3,0.5-0.5,0.8-0.8c0.3-0.3,0.6-0.6,0.9-0.8
		c0.3-0.2,0.5-0.5,0.8-0.7c0.3-0.3,0.6-0.5,0.9-0.8c0.3-0.2,0.6-0.4,0.9-0.7c0.3-0.2,0.7-0.5,1-0.7c0.3-0.2,0.6-0.4,0.9-0.6
		c0.3-0.2,0.7-0.4,1-0.6c0.3-0.2,0.6-0.4,0.9-0.6c0.3-0.2,0.7-0.4,1.1-0.6c0.3-0.2,0.6-0.3,1-0.5c0.4-0.2,0.7-0.3,1.1-0.5
		c0.3-0.2,0.7-0.3,1-0.5c0.4-0.2,0.8-0.3,1.1-0.5c0.3-0.1,0.7-0.3,1-0.4c0.4-0.1,0.8-0.3,1.2-0.4c0.3-0.1,0.7-0.2,1-0.3
		c0.4-0.1,0.8-0.2,1.2-0.3c0.3-0.1,0.7-0.2,1-0.3c0.4-0.1,0.8-0.2,1.3-0.3c0.3-0.1,0.7-0.1,1-0.2c0.4-0.1,0.9-0.1,1.4-0.2
		c0.3,0,0.6-0.1,0.9-0.1c0.5-0.1,1-0.1,1.5-0.1c0.3,0,0.5-0.1,0.8-0.1c0.8,0,1.6-0.1,2.3-0.1s1.6,0,2.3,0.1c0.3,0,0.5,0,0.8,0.1
		c0.5,0,1,0.1,1.5,0.1c0.3,0,0.6,0.1,0.9,0.1c0.5,0.1,0.9,0.1,1.4,0.2c0.3,0.1,0.7,0.1,1,0.2c0.4,0.1,0.9,0.2,1.3,0.3
		c0.3,0.1,0.7,0.2,1,0.3c0.4,0.1,0.8,0.2,1.2,0.3c0.3,0.1,0.7,0.2,1,0.3c0.4,0.1,0.8,0.3,1.2,0.4c0.3,0.1,0.7,0.3,1,0.4
		c0.4,0.1,0.7,0.3,1.1,0.5c0.3,0.1,0.7,0.3,1,0.5c0.4,0.2,0.7,0.3,1.1,0.5c0.3,0.2,0.7,0.3,1,0.5c0.3,0.2,0.7,0.4,1,0.6
		c0.3,0.2,0.6,0.4,1,0.6c0.3,0.2,0.7,0.4,1,0.6c0.3,0.2,0.6,0.4,0.9,0.6c0.3,0.2,0.6,0.4,1,0.7c0.3,0.2,0.6,0.5,0.9,0.7
		c0.3,0.2,0.6,0.5,0.9,0.7c0.3,0.2,0.6,0.5,0.9,0.7c0.3,0.3,0.6,0.5,0.9,0.8c0.3,0.3,0.5,0.5,0.8,0.8c0.3,0.3,0.6,0.6,0.8,0.8
		c0.3,0.3,0.5,0.6,0.8,0.8c0.3,0.3,0.5,0.6,0.8,0.9c0.2,0.3,0.5,0.6,0.7,0.9c0.1,0.2,0.2,0.3,0.4,0.5C91.5,75,90.5,76.2,89.5,77.5
		 M72.7,91.6c0.1-0.7,0.2-1.5,0.2-2.2c0-0.7-0.1-1.4-0.2-2.1c-0.9,0.5-1.9,0.8-3,0.8c-3.2,0-5.7-2.6-5.7-5.7c0-1.6,0.6-3,1.6-4
		c-1.4-0.6-3-1-4.7-1c-6.6,0-12,5.4-12,12c0,0.8,0.1,1.5,0.2,2.2c-3.4-1.9-6.8-4.2-9.9-7c2.2-10,11.1-17.4,21.7-17.4
		s19.5,7.5,21.7,17.4C79.4,87.3,76.1,89.7,72.7,91.6 M93.6,33.5c-4.9-4-10.6-6.2-16.6-6.2c-5.4,0-10.7,1.7-16,4.9
		c-5.3-3.3-10.6-4.9-16-4.9c-6,0-11.8,2.1-16.6,6.2C16.4,43.4,15.5,59.1,26,74.7c1.1,1.7,2.4,3.3,3.7,5c2.2,2.6,4.6,5.1,7.1,7.4
		c7.4,6.6,15.9,11,23.8,12.3c0.1,0,0.2,0,0.3,0c0.1,0,0.2,0,0.3,0C69.2,98,77.6,93.6,85.1,87c2.5-2.2,4.9-4.7,7.1-7.4
		c1.3-1.6,2.6-3.3,3.7-5c0,0,0,0,0,0C106.4,59.1,105.5,43.3,93.6,33.5"/>
</g>
</svg>
