<?xml version="1.0" encoding="utf-8"?>
<!-- Generator: Adobe Illustrator 19.2.1, SVG Export Plug-In . SVG Version: 6.00 Build 0)  -->
<!DOCTYPE svg PUBLIC "-//W3C//DTD SVG 1.1//EN" "http://www.w3.org/Graphics/SVG/1.1/DTD/svg11.dtd">
<svg version="1.1" id="Calque_1" xmlns="http://www.w3.org/2000/svg" xmlns:xlink="http://www.w3.org/1999/xlink" x="0px" y="0px"
	 viewBox="0 0 121.9 121.9" style="enable-background:new 0 0 121.9 121.9;" xml:space="preserve">
<g>
	<path d="M60.9,121.9C27.3,121.9,0,94.5,0,60.9C0,27.3,27.3,0,60.9,0c33.6,0,60.9,27.3,60.9,60.9C121.9,94.5,94.5,121.9,60.9,121.9z
		 M60.9,3C29,3,3,29,3,60.9c0,32,26,57.9,57.9,57.9c32,0,57.9-26,57.9-57.9C118.9,29,92.9,3,60.9,3z"/>
</g>
<g>
	<path d="M35.6,80.6c0.4-0.3,0.8-0.6,1.2-1c0.3-0.2,0.5-0.5,0.8-0.7c0.5-0.3,1.1-0.3,2.2-0.3c1.8,0,3.6,0.8,5.9,2.4
		c2.5,1.8,5.1,2.7,7.7,2.7c0.2,0,0.3,0,0.5,0c2.4-0.1,4.4-1.4,6.4-2.7c0.9-0.6,1.7-1.1,2.5-1.5c1.4-0.6,2.4-0.6,3.5,0.1
		c0.4,0.3,0.9,0.6,1.3,1c1.2,0.9,2.4,1.8,3.7,2.4c2.8,1.2,6.2,0.6,9-1.8c0.4-0.4,0.8-0.7,1.2-1.1c1-1,1.5-1.4,2.4-1.5
		c0.9,0,1.7-0.8,1.7-1.8c0-0.9-0.9-1.6-1.8-1.7c-2.3,0.1-3.6,1.3-4.7,2.4c-0.3,0.3-0.6,0.6-1,0.9c-1.8,1.5-3.8,2-5.4,1.3
		c-1-0.4-2-1.2-3-2c-0.5-0.4-1-0.7-1.5-1.1c-2.1-1.4-4.4-1.6-6.9-0.4c-1,0.5-2,1.1-2.9,1.7c-1.6,1-3.3,2.1-4.8,2.2c-2,0.1-4-0.6-6-2
		c-1.9-1.4-4.6-2.9-7.9-3c-1.2,0-2.6,0-4,0.9c-0.5,0.3-0.9,0.7-1.3,1c-0.2,0.2-0.5,0.5-0.8,0.7c-3.7,2.6-7.2,2-10.8-1.9
		c-0.6-0.7-1.7-0.7-2.4-0.1c-0.7,0.6-0.7,1.7-0.1,2.4C25.1,83.3,30.5,84.2,35.6,80.6"/>
</g>
<g>
	<path d="M27.2,89.3h50.9c-0.2,2.6-1.6,4.5-3,4.9h-9.7c-0.2,0-0.3,0.1-0.4,0.1H30.8C29,94.4,27.5,92.1,27.2,89.3 M77.3,62.6
		c1.7,4.3,1.2,6.2,0.8,6.9c-0.5,0.8-1.3,1-1.5,1H29.3c-1.2-0.4-1.9-1.1-2.2-2c-0.9-2.6,1.5-6.8,2.4-8.1c7.8-9.6,16.7-11.6,22.8-11.6
		C63.8,48.7,74.5,55.9,77.3,62.6 M100.3,37h-22c0.6-12.8,6.5-18.4,6.6-18.4c0.7-0.6,0.8-1.7,0.1-2.4c-0.6-0.7-1.7-0.8-2.4-0.1
		c-0.3,0.3-7,6.5-7.7,21H54.4c-0.9,0-1.7,0.8-1.7,1.7c0,0.9,0.8,1.7,1.7,1.7h4.1l0.5,5.6c-2.2-0.5-4.5-0.7-6.8-0.7
		c-6.8,0-16.8,2.2-25.5,13c-0.5,0.7-4.5,6.6-3,11.3c0.5,1.4,1.6,3.3,4.7,4.3c0.2,0.1,0.4,0.1,0.5,0.1h47.6c0,0,0.1,0,0.1,0
		c0.3,0,2.8-0.2,4.2-2.5c1.5-2.3,1.3-5.7-0.5-10.1c-2.3-5.6-9.1-11.5-17.8-14.3L62,40.4h14.5h0h16.2l-5.1,53.9h-7.6
		c1-1.6,1.5-3.6,1.5-5.8v-0.9c0-0.9-0.8-1.7-1.7-1.7H25.5c-0.9,0-1.7,0.8-1.7,1.7v0.9c0,5.1,3.1,9.3,7,9.3h43.8c0.3,0,0.6,0,0.9-0.1
		h13.7c0.9,0,1.6-0.7,1.7-1.5l5.3-55.7h4.1c0.9,0,1.7-0.8,1.7-1.7C102,37.8,101.3,37,100.3,37"/>
</g>
<g>
	<path d="M39.3,61.1c-1,0-1.9,0.8-1.9,1.8c0,1,0.9,1.8,1.9,1.8c1,0,1.9-0.8,1.9-1.8C41.2,61.9,40.4,61.1,39.3,61.1"/>
</g>
<g>
	<path d="M64.6,64.8c1,0,1.9-0.8,1.9-1.8s-0.8-1.8-1.9-1.8c-1,0-1.9,0.8-1.9,1.8S63.6,64.8,64.6,64.8"/>
</g>
<g>
	<path d="M50.3,55.7c0,1.2,1,2.2,2.3,2.2c1.3,0,2.3-1,2.3-2.2c0-1.2-1-2.2-2.3-2.2C51.4,53.5,50.3,54.5,50.3,55.7"/>
</g>
</svg>
