<?xml version="1.0" encoding="utf-8"?>
<!-- Generator: Adobe Illustrator 19.2.1, SVG Export Plug-In . SVG Version: 6.00 Build 0)  -->
<!DOCTYPE svg PUBLIC "-//W3C//DTD SVG 1.1//EN" "http://www.w3.org/Graphics/SVG/1.1/DTD/svg11.dtd">
<svg version="1.1" id="Calque_1" xmlns="http://www.w3.org/2000/svg" xmlns:xlink="http://www.w3.org/1999/xlink" x="0px" y="0px"
	 viewBox="0 0 24.2 38.8" style="enable-background:new 0 0 24.2 38.8;" xml:space="preserve">
<g>
	<path d="M22.7,1.5c-1-1-2.1-1.5-3.5-1.5c-1.4,0-2.5,0.5-3.5,1.5L1.4,15.7c-1,1-1.5,2.2-1.4,3.7C-0.1,20.8,0.4,22,1.4,23l14.3,14.3
		c1,1,2.1,1.5,3.5,1.5c1.4,0,2.6-0.5,3.5-1.5c1-1,1.5-2.1,1.5-3.5c0-1.4-0.5-2.6-1.5-3.5L11.8,19.4L22.7,8.5c1-1,1.5-2.1,1.5-3.5
		C24.2,3.6,23.7,2.4,22.7,1.5"/>
</g>
</svg>
