<?xml version="1.0" encoding="utf-8"?>
<!-- Generator: Adobe Illustrator 19.2.1, SVG Export Plug-In . SVG Version: 6.00 Build 0)  -->
<!DOCTYPE svg PUBLIC "-//W3C//DTD SVG 1.1//EN" "http://www.w3.org/Graphics/SVG/1.1/DTD/svg11.dtd">
<svg version="1.1" id="Calque_1" xmlns="http://www.w3.org/2000/svg" xmlns:xlink="http://www.w3.org/1999/xlink" x="0px" y="0px"
	 viewBox="0 0 171.7 168.7" style="enable-background:new 0 0 171.7 168.7;" xml:space="preserve">
<path d="M89.4,26.4c8,7.9,13,18.7,13,30.7c0,11.9-4.9,22.7-12.8,30.6l-0.1,0.2c-8,7.9-19.1,12.7-31.3,12.7
	c-12.2,0-23.3-4.9-31.3-12.7c-8-7.9-13-18.7-13-30.7s5-22.9,13-30.7c8-7.9,19.1-12.7,31.3-12.7C70.3,13.6,81.4,18.5,89.4,26.4
	 M97,57.1c0-10.6-4.3-20.1-11.4-27c-7-6.9-16.8-11.2-27.5-11.2c-10.8,0-20.5,4.3-27.5,11.2c-7,6.9-11.4,16.5-11.4,27
	c0,10.6,4.3,20.1,11.4,27c7,6.9,16.8,11.2,27.5,11.2c10.8,0,20.5-4.3,27.5-11.2l0.1-0.1C92.7,77.1,97,67.6,97,57.1"/>
<path d="M108.2,86.1c-0.8,1.3-2.4,1.7-3.7,0.9c-1.3-0.7-1.7-2.3-0.9-3.6c6-10,8.3-21.7,6.9-32.9c-1.4-11-6.4-21.6-15-30
	C85.1,10.3,71.6,5.3,58.1,5.3c-13.5,0-27,5-37.3,15.1v0C10.5,30.6,5.4,43.8,5.4,57.1c0,13.3,5.1,26.5,15.4,36.6
	c10.3,10.1,23.8,15.2,37.3,15.2c13.5,0,27-5.1,37.3-15.2c1-1,2.8-1,3.8,0c1,1,1,2.7,0,3.7c-11.3,11.2-26.2,16.7-41.1,16.7
	c-14.9,0-29.8-5.6-41.1-16.7C5.7,86.3,0,71.7,0,57.1c0-14.6,5.7-29.2,17-40.4C28.4,5.6,43.2,0,58.1,0s29.7,5.6,41.1,16.7
	c9.5,9.3,15,21,16.5,33.1C117.4,62.2,114.8,75,108.2,86.1"/>
<path d="M58.1,27.2c1.5,0,2.7,1.2,2.7,2.6c0,1.4-1.2,2.6-2.7,2.6c-1.7,0-3.4,0.2-5,0.5c-1.7,0.4-3.2,0.8-4.8,1.4
	c-1.4,0.6-2.9,1.4-4.2,2.3L44,36.8c-1.3,0.8-2.5,1.8-3.6,2.9c-2.3,2.3-4.1,4.9-5.4,7.8c-0.6,1.5-1.1,3.1-1.5,4.7
	c-0.3,1.5-0.5,3.2-0.5,4.9c0,1.4-1.2,2.6-2.7,2.6c-1.5,0-2.7-1.2-2.7-2.6c0-2,0.2-4,0.6-5.9c0.4-2,1-3.9,1.8-5.7
	c1.5-3.6,3.8-6.8,6.5-9.5c1.3-1.3,2.8-2.5,4.4-3.5l0.2-0.1c1.6-1,3.3-2,5.2-2.7c1.8-0.8,3.8-1.4,5.8-1.8
	C54.1,27.4,56.1,27.2,58.1,27.2"/>
<path d="M95.4,97.5c-1-1-1-2.7,0-3.7c1-1,2.8-1,3.8,0l15.3,15c1,1,1,2.7,0,3.7c-1.1,1-2.8,1-3.8,0L95.4,97.5z"/>
<path d="M115,112.9L115,112.9c-0.8,0.8-1.2,1.9-1.2,2.9c0,1.1,0.4,2.1,1.2,3v0l14.7,14.4l14.7,14.5l14.7,14.4c0.8,0.8,1.9,1.2,3,1.2
	c1.1,0,2.2-0.4,3-1.2c0.8-0.8,1.2-1.9,1.2-3c0-1.1-0.4-2.1-1.2-2.9l-14.7-14.5l-14.7-14.4L121,112.9c-0.8-0.8-1.9-1.2-3-1.2
	C116.9,111.7,115.8,112.1,115,112.9 M111.2,109.2L111.2,109.2c1.9-1.8,4.3-2.8,6.8-2.8c2.5,0,4.9,0.9,6.8,2.8l14.7,14.5l14.7,14.4
	l14.7,14.5c1.9,1.8,2.8,4.3,2.8,6.7c0,2.4-0.9,4.8-2.8,6.6v0c-1.9,1.8-4.3,2.8-6.8,2.8c-2.5,0-4.9-0.9-6.8-2.8L125.9,137l-14.7-14.4
	c-1.9-1.8-2.8-4.3-2.8-6.7C108.4,113.5,109.3,111.1,111.2,109.2"/>
</svg>
