<?xml version="1.0" encoding="utf-8"?>
<!-- Generator: Adobe Illustrator 19.2.1, SVG Export Plug-In . SVG Version: 6.00 Build 0)  -->
<!DOCTYPE svg PUBLIC "-//W3C//DTD SVG 1.1//EN" "http://www.w3.org/Graphics/SVG/1.1/DTD/svg11.dtd">
<svg version="1.1" id="Calque_1" xmlns="http://www.w3.org/2000/svg" xmlns:xlink="http://www.w3.org/1999/xlink" x="0px" y="0px"
	 viewBox="0 0 121.9 121.9" style="enable-background:new 0 0 121.9 121.9;" xml:space="preserve">
<g>
	<path d="M60.9,121.9C27.3,121.9,0,94.5,0,60.9C0,27.3,27.3,0,60.9,0c33.6,0,60.9,27.3,60.9,60.9C121.9,94.5,94.5,121.9,60.9,121.9z
		 M60.9,3C29,3,3,29,3,60.9c0,32,26,57.9,57.9,57.9c32,0,57.9-26,57.9-57.9C118.9,29,92.9,3,60.9,3z"/>
</g>
<g>
	<path d="M54,73.6h-7.7c-0.9,0-1.7,0.8-1.7,1.7c0,0.9,0.7,1.7,1.7,1.7H54c0.9,0,1.7-0.8,1.7-1.7C55.7,74.4,55,73.6,54,73.6"/>
</g>
<g>
	<path d="M86.8,89.6l-6-33.8c-0.2-0.9-0.9-1.5-1.8-1.4c-0.9,0.1-1.5,0.8-1.5,1.7v42.3c-1.4,0-3.4,0.1-6.3,0.2c-0.1,0-0.1,0-0.2,0
		c-5.9,0-8.1-15.4-8.4-20.8V65.9c0.1-0.1,0.2-0.1,0.4-0.2c11.9-10.3,13.9-30,14.2-35.8l5.9,3C90,44,93.8,80.7,94.6,89.2L86.8,89.6z
		 M50.8,98.6c-0.1,0-0.1,0-0.2,0c-2.7-0.1-4.6-0.2-6-0.2h-0.2V56.1c0-0.9-0.7-1.6-1.5-1.7c-0.9-0.1-1.6,0.5-1.8,1.4l-6,33.8
		l-7.9-0.3c0.8-8.5,4.6-45.3,11.5-56.3l5.9-3c0.3,5.8,2.4,25.5,14.2,35.8c0.1,0.1,0.2,0.2,0.4,0.2l0,7l0,4.9
		C58.9,83.2,56.7,98.6,50.8,98.6 M50.2,27.1c0.1,0,0.1-0.1,0.2-0.1l2.4-1.7c-0.6,6.1-0.8,18.5,4.3,33.3c-8.5-11.7-9-29.7-9-30.4
		L50.2,27.1z M56.4,23.3h9.2c0.6,4.4,2,18.9-4.6,36.4C54.4,42.2,55.7,27.6,56.4,23.3 M71.5,27c0.1,0.1,0.1,0.1,0.2,0.1l2.2,1.1
		c0,0.7-0.5,18.6-9,30.4c5.1-14.8,4.9-27.2,4.3-33.3L71.5,27z M85.6,30.6c-0.2-0.2-0.4-0.4-0.6-0.6l-11.6-6l-5.4-3.9
		c-0.3-0.2-0.7-0.3-1-0.3c0,0,0,0,0,0H55.3c-0.1,0-0.1,0-0.2,0c-0.4-0.1-0.8,0-1.2,0.3l-5.4,3.9l-11.6,6c-0.3,0.1-0.5,0.3-0.6,0.6
		c-8.5,12.6-12.3,58.2-12.5,60.1c0,0.5,0.1,0.9,0.4,1.3c0.3,0.3,0.7,0.6,1.2,0.6L36.4,93c0.8,0.1,1.6-0.6,1.7-1.4l2.9-16.5v24.7
		c0,0,0,0,0,0c-0.2,0.8,0.3,1.7,1.1,2c0.5,0.2,1,0.2,1.4-0.1c0.6,0,2.4-0.1,7,0.2c0.1,0,0.2,0,0.4,0c5.6,0,8.5-6.7,10.1-13
		c1.6,6.4,4.5,13,10.1,13c0.1,0,0.2,0,0.4,0c4.6-0.2,6.4-0.2,7-0.2c0.4,0.2,0.9,0.3,1.4,0.1c0.8-0.3,1.2-1.2,1-2c0,0,0,0,0,0V75.2
		l2.9,16.5c0.1,0.8,0.9,1.5,1.7,1.4l11.1-0.5c0.5,0,0.9-0.2,1.2-0.6c0.3-0.4,0.4-0.8,0.4-1.3C98,88.8,94.1,43.3,85.6,30.6"/>
</g>
<g>
	<path d="M75.6,73.6h-7.7c-0.9,0-1.7,0.8-1.7,1.7c0,0.9,0.7,1.7,1.7,1.7h7.7c0.9,0,1.7-0.8,1.7-1.7C77.3,74.4,76.5,73.6,75.6,73.6"
		/>
</g>
</svg>
