<?xml version="1.0" encoding="utf-8"?>
<!-- Generator: Adobe Illustrator 19.2.1, SVG Export Plug-In . SVG Version: 6.00 Build 0)  -->
<!DOCTYPE svg PUBLIC "-//W3C//DTD SVG 1.1//EN" "http://www.w3.org/Graphics/SVG/1.1/DTD/svg11.dtd">
<svg version="1.1" id="Calque_1" xmlns="http://www.w3.org/2000/svg" xmlns:xlink="http://www.w3.org/1999/xlink" x="0px" y="0px"
	 viewBox="0 0 121.9 121.9" style="enable-background:new 0 0 121.9 121.9;" xml:space="preserve">
<g>
	<path d="M60.9,121.9C27.3,121.9,0,94.5,0,60.9C0,27.3,27.3,0,60.9,0c33.6,0,60.9,27.3,60.9,60.9C121.9,94.5,94.5,121.9,60.9,121.9z
		 M60.9,3C29,3,3,29,3,60.9c0,32,26,57.9,57.9,57.9c32,0,57.9-26,57.9-57.9C118.9,29,92.9,3,60.9,3z"/>
</g>
<g>
	<path d="M47.7,71.5c0.8,0,1.4,0.6,1.4,1.4s-0.6,1.4-1.4,1.4c-0.8,0-1.4-0.6-1.4-1.4S46.9,71.5,47.7,71.5"/>
</g>
<g>
	<path d="M47.7,74.5c-0.9,0-1.6-0.7-1.6-1.6s0.7-1.6,1.6-1.6c0.9,0,1.6,0.7,1.6,1.6S48.6,74.5,47.7,74.5z M47.7,71.7
		c-0.6,0-1.1,0.5-1.1,1.1S47,74,47.7,74c0.6,0,1.1-0.5,1.1-1.1S48.3,71.7,47.7,71.7z"/>
</g>
<g>
	<path d="M68.6,41.8h4.6v4.3c0,0.8,0.6,1.4,1.4,1.4S76,47,76,46.2v-5.8c0-0.8-0.6-1.4-1.4-1.4h-6c-0.8,0-1.4,0.6-1.4,1.4
		C67.1,41.2,67.8,41.8,68.6,41.8"/>
</g>
<g>
	<path d="M74.6,47.8c-0.9,0-1.7-0.8-1.7-1.7v-4.1h-4.3c-0.9,0-1.7-0.8-1.7-1.7c0-0.9,0.8-1.7,1.7-1.7h6c0.9,0,1.7,0.8,1.7,1.7v5.8
		C76.3,47.1,75.5,47.8,74.6,47.8z M68.6,39.2c-0.7,0-1.2,0.5-1.2,1.2c0,0.7,0.5,1.2,1.2,1.2h4.8v4.6c0,0.7,0.5,1.2,1.2,1.2
		c0.7,0,1.2-0.5,1.2-1.2v-5.8c0-0.7-0.5-1.2-1.2-1.2H68.6z"/>
</g>
<g>
	<path d="M93.6,85.5l-2.1-9h9.9l-2.1,9H93.6z M38.2,85.5c0.6-0.6,1.3-1.3,1.9-2.1h15.3c0.6,0.8,1.2,1.4,1.9,2.1H38.2z M52.9,78.5
		c0.1,0.7,0.3,1.4,0.6,2.1H41.8c0.3-0.7,0.5-1.4,0.6-2.1H52.9z M17,70.1h61.3v5.5h-24H41H17V70.1z M78.3,67.2H17V36.4h61.3V67.2z
		 M102.4,72l-0.4,1.6H90.9L90.5,72H102.4z M93.1,57.3c0-0.1,0-0.2,0-0.2c0-0.1,0-0.2,0-0.2c0.1-1.7,1.6-3.1,3.4-3.1
		c1.9,0,3.4,1.5,3.4,3.4c0,1.9-1.5,3.4-3.4,3.4C94.7,60.4,93.2,59,93.1,57.3 M106.3,85.5h-4l3.3-14.6c0.1-0.4,0-0.9-0.3-1.2
		c-0.3-0.3-0.7-0.5-1.1-0.5h-6.3v-6.1c0.6-0.1,1.1-0.4,1.7-0.7l3.1,3.1c0.3,0.3,0.6,0.4,1,0.4c0.4,0,0.7-0.1,1-0.4
		c0.6-0.6,0.6-1.5,0-2l-3.1-3.1c0.4-0.6,0.7-1.3,0.9-2h3.6c0.8,0,1.4-0.6,1.4-1.4c0-0.8-0.6-1.4-1.4-1.4h-3.6
		c-0.2-0.7-0.5-1.4-0.9-2l3.1-3.1c0.6-0.6,0.6-1.5,0-2c-0.6-0.6-1.5-0.6-2,0l-3.1,3.1c-0.5-0.3-1.1-0.5-1.7-0.7v-4
		c0-0.8-0.6-1.4-1.4-1.4c-0.8,0-1.4,0.6-1.4,1.4v4c-0.6,0.1-1.1,0.4-1.6,0.6l-3.1-3.1c-0.6-0.6-1.5-0.6-2,0c-0.6,0.6-0.6,1.5,0,2
		l3,3c-0.4,0.6-0.7,1.3-0.9,2h-3.6c-0.8,0-1.4,0.6-1.4,1.4s0.6,1.4,1.4,1.4h3.6c0.2,0.7,0.5,1.4,0.9,2l-3,3c-0.6,0.6-0.6,1.5,0,2
		c0.3,0.3,0.6,0.4,1,0.4c0.4,0,0.7-0.1,1-0.4l3.1-3.1c0.5,0.3,1.1,0.5,1.6,0.6v6.1h-6.3c-0.4,0-0.8,0.2-1.1,0.5
		c-0.3,0.3-0.4,0.8-0.3,1.2l3.3,14.6H61.5c-1.7-1.3-5.1-4.5-5.7-7h23.9c0.8,0,1.4-0.6,1.4-1.4V35c0-0.8-0.6-1.4-1.4-1.4H15.6
		c-0.8,0-1.4,0.6-1.4,1.4V77c0,0.8,0.6,1.4,1.4,1.4h23.9c-0.5,2.3-3.5,5.3-5.7,7H15.6c-0.8,0-1.4,0.6-1.4,1.4c0,0.8,0.6,1.4,1.4,1.4
		h18.7H61h31.4h8h5.8c0.8,0,1.4-0.6,1.4-1.4C107.7,86.1,107.1,85.5,106.3,85.5"/>
</g>
<g>
	<path d="M106.3,88.6H15.6c-0.9,0-1.7-0.8-1.7-1.7c0-0.9,0.8-1.7,1.7-1.7h18.2c2.3-1.8,4.8-4.4,5.4-6.5H15.6c-0.9,0-1.7-0.8-1.7-1.7
		V35c0-0.9,0.8-1.7,1.7-1.7h64.1c0.9,0,1.7,0.8,1.7,1.7V77c0,0.9-0.8,1.7-1.7,1.7H56.1c0.7,2.3,3.7,5.1,5.5,6.5h28.7l-3.3-14.3
		c-0.1-0.5,0-1,0.3-1.4c0.3-0.4,0.8-0.6,1.3-0.6h6.1v-5.6c-0.5-0.1-0.9-0.3-1.3-0.5l-3,3c-0.6,0.6-1.7,0.6-2.4,0
		c-0.3-0.3-0.5-0.7-0.5-1.2c0-0.5,0.2-0.9,0.5-1.2l2.9-2.9c-0.3-0.5-0.6-1.1-0.8-1.8h-3.4c-0.9,0-1.7-0.8-1.7-1.7s0.8-1.7,1.7-1.7
		h3.4c0.2-0.6,0.4-1.2,0.8-1.8L88,50.7c-0.3-0.3-0.5-0.7-0.5-1.2c0-0.5,0.2-0.9,0.5-1.2c0.7-0.7,1.7-0.7,2.4,0l3,3
		c0.4-0.2,0.9-0.4,1.3-0.5v-3.9c0-0.9,0.8-1.7,1.7-1.7c0.9,0,1.7,0.8,1.7,1.7v3.9c0.5,0.1,0.9,0.3,1.4,0.5l3-3
		c0.6-0.6,1.7-0.6,2.4,0c0.3,0.3,0.5,0.7,0.5,1.2c0,0.4-0.2,0.9-0.5,1.2l-2.9,2.9c0.3,0.5,0.6,1.1,0.7,1.7h3.4
		c0.9,0,1.7,0.8,1.7,1.7s-0.8,1.7-1.7,1.7h-3.4c-0.2,0.6-0.4,1.2-0.7,1.7l2.9,2.9c0.3,0.3,0.5,0.7,0.5,1.2s-0.2,0.9-0.5,1.2
		c-0.6,0.6-1.8,0.6-2.4,0l-3-3c-0.4,0.2-0.9,0.4-1.4,0.5v5.6h6.1c0.5,0,1,0.2,1.3,0.6c0.3,0.4,0.4,0.9,0.3,1.4l-3.3,14.3h3.7
		c0.9,0,1.7,0.8,1.7,1.7C108,87.8,107.2,88.6,106.3,88.6z M15.6,85.7c-0.7,0-1.2,0.5-1.2,1.2c0,0.7,0.5,1.2,1.2,1.2h90.7
		c0.7,0,1.2-0.5,1.2-1.2c0-0.7-0.5-1.2-1.2-1.2h-4.3l3.4-14.9c0.1-0.4,0-0.7-0.2-1c-0.2-0.3-0.6-0.4-0.9-0.4h-6.6v-6.5l0.2,0
		c0.6-0.1,1.1-0.3,1.6-0.6l0.2-0.1l3.3,3.3c0.4,0.4,1.2,0.4,1.7,0c0.2-0.2,0.3-0.5,0.3-0.8s-0.1-0.6-0.3-0.8l-3.2-3.2l0.1-0.2
		c0.4-0.6,0.7-1.2,0.8-1.9l0-0.2h3.8c0.7,0,1.2-0.5,1.2-1.2s-0.5-1.2-1.2-1.2h-3.8l0-0.2c-0.2-0.7-0.4-1.4-0.8-1.9l-0.1-0.2l3.2-3.2
		c0.2-0.2,0.3-0.5,0.3-0.8c0-0.3-0.1-0.6-0.3-0.8c-0.4-0.4-1.2-0.4-1.7,0l-3.3,3.3l-0.2-0.1c-0.5-0.3-1-0.5-1.6-0.6l-0.2,0v-4.2
		c0-0.7-0.5-1.2-1.2-1.2s-1.2,0.5-1.2,1.2v4.2l-0.2,0c-0.6,0.1-1.1,0.3-1.6,0.6l-0.2,0.1l-3.3-3.3c-0.5-0.5-1.2-0.5-1.7,0
		c-0.2,0.2-0.3,0.5-0.3,0.8c0,0.3,0.1,0.6,0.3,0.8l3.2,3.2l-0.1,0.2c-0.4,0.6-0.7,1.3-0.9,2l0,0.2h-3.8c-0.7,0-1.2,0.5-1.2,1.2
		s0.5,1.2,1.2,1.2h3.8l0,0.2c0.2,0.7,0.5,1.4,0.9,2l0.1,0.2l-3.2,3.2c-0.2,0.2-0.3,0.5-0.3,0.8s0.1,0.6,0.3,0.8
		c0.5,0.4,1.2,0.4,1.7,0l3.3-3.3l0.2,0.1c0.5,0.3,1,0.5,1.6,0.6l0.2,0v6.5h-6.6c-0.4,0-0.7,0.2-0.9,0.4c-0.2,0.3-0.3,0.7-0.2,1
		l3.4,14.9H61.4l-0.1-0.1c-0.5-0.4-5.1-4-5.8-7.1l-0.1-0.3h24.3c0.7,0,1.2-0.5,1.2-1.2V35c0-0.7-0.5-1.2-1.2-1.2H15.6
		c-0.7,0-1.2,0.5-1.2,1.2V77c0,0.7,0.5,1.2,1.2,1.2h24.2l-0.1,0.3c-0.6,2.6-3.9,5.7-5.8,7.1l-0.1,0.1H15.6z M99.5,85.7h-6.1
		l-2.2-9.5h10.5L99.5,85.7z M93.8,85.2h5.3l1.9-8.5h-9.2L93.8,85.2z M57.8,85.7H37.6l0.4-0.4c0.7-0.7,1.3-1.4,1.8-2l0.1-0.1h15.5
		l0.1,0.1c0.5,0.7,1.2,1.4,1.8,2L57.8,85.7z M38.8,85.2h17.8c-0.5-0.5-1-1-1.4-1.6h-15C39.7,84.2,39.3,84.7,38.8,85.2z M53.9,80.8
		H41.5l0.2-0.4c0.3-0.7,0.5-1.4,0.6-2l0-0.2h10.9l0,0.2c0.1,0.6,0.3,1.3,0.6,2L53.9,80.8z M42.2,80.3h10.9c-0.2-0.5-0.4-1.1-0.5-1.6
		h-10C42.6,79.2,42.4,79.8,42.2,80.3z M78.6,75.9H16.8v-6h61.8V75.9z M17.3,75.4h60.8v-5H17.3V75.4z M102.2,73.8H90.7l-0.5-2.1h12.5
		L102.2,73.8z M91.1,73.3h10.8l0.2-1.1H90.8L91.1,73.3z M78.6,67.5H16.8V36.2h61.8V67.5z M17.3,67h60.8V36.7H17.3V67z M96.4,60.6
		c-1.9,0-3.5-1.5-3.6-3.4l0,0l0,0c0-0.1,0-0.1,0-0.2s0-0.1,0-0.2c0.1-1.9,1.7-3.4,3.6-3.4c2,0,3.6,1.6,3.6,3.6S98.4,60.6,96.4,60.6z
		 M93.3,57.3c0.1,1.6,1.5,2.9,3.1,2.9c1.7,0,3.1-1.4,3.1-3.1s-1.4-3.1-3.1-3.1c-1.6,0-3,1.3-3.1,2.9c0,0,0,0.1,0,0.2
		C93.4,57.1,93.3,57.2,93.3,57.3z"/>
</g>
</svg>
