<?xml version="1.0" encoding="utf-8"?>
<!-- Generator: Adobe Illustrator 19.2.1, SVG Export Plug-In . SVG Version: 6.00 Build 0)  -->
<!DOCTYPE svg PUBLIC "-//W3C//DTD SVG 1.1//EN" "http://www.w3.org/Graphics/SVG/1.1/DTD/svg11.dtd">
<svg version="1.1" id="Calque_1" xmlns="http://www.w3.org/2000/svg" xmlns:xlink="http://www.w3.org/1999/xlink" x="0px" y="0px"
	 viewBox="0 0 37.2 34" style="enable-background:new 0 0 37.2 34;" xml:space="preserve">
<path d="M17,0C7.6,0,0,7.6,0,17c0,9.2,7.4,16.8,16.6,17c0.1,0,0.2,0,0.4,0c0.1,0,0.2,0,0.3,0c6.9-0.1,12.9-4.4,15.4-10.5
	c0.3-0.8,0-1.8-0.9-2.1c-0.8-0.3-1.8,0-2.1,0.9c0,0,0,0,0,0c-2.1,5-6.9,8.5-12.6,8.5c0,0-0.1,0-0.1,0C9.4,30.8,3.2,24.6,3.2,17
	S9.4,3.2,17,3.2c6,0,11.1,3.8,13,9.2l-0.7-0.7c-0.4-0.5-1.2-0.6-1.8-0.4c-0.6,0.2-1,0.8-1,1.5c0,0.1,0,0.1,0,0.2
	c0,0.4,0.2,0.7,0.5,1l3.4,3.4c0,0,0.1,0.1,0.1,0.1c0.4,0.4,1,0.7,1.5,0.6c0,0,0,0,0,0c0,0,0.1,0,0.1,0c0,0,0,0,0.1,0
	c0.1,0,0.2-0.1,0.2-0.1c0,0,0,0,0,0c0,0,0.1,0,0.1-0.1c0,0,0,0,0,0c0,0,0.1,0,0.1-0.1c0,0,0,0,0,0c0,0,0.1,0,0.1-0.1c0,0,0,0,0,0
	c0,0,0.1-0.1,0.1-0.1l3.6-3.6c0.7-0.6,0.7-1.7,0.1-2.3c-0.6-0.6-1.8-0.6-2.3,0.1l-1,1C31.6,5.4,24.9,0,17,0z"/>
</svg>
