<?xml version="1.0" encoding="utf-8"?>
<!-- Generator: Adobe Illustrator 19.2.1, SVG Export Plug-In . SVG Version: 6.00 Build 0)  -->
<!DOCTYPE svg PUBLIC "-//W3C//DTD SVG 1.1//EN" "http://www.w3.org/Graphics/SVG/1.1/DTD/svg11.dtd">
<svg version="1.1" id="Calque_1" xmlns="http://www.w3.org/2000/svg" xmlns:xlink="http://www.w3.org/1999/xlink" x="0px" y="0px"
	 viewBox="0 0 46.3 55" style="enable-background:new 0 0 46.3 55;" xml:space="preserve">
<g>
	<path d="M23.2,55c-0.5,0-1-0.2-1.4-0.6l-15-15C2.4,35.1,0,29.4,0,23.2c0-6.2,2.4-12,6.8-16.4l0,0l0,0C11.2,2.4,17,0,23.2,0
		s12,2.4,16.4,6.8c4.4,4.3,6.8,10.1,6.8,16.3c0,6.2-2.4,12-6.8,16.4l-15,15C24.2,54.8,23.7,55,23.2,55z M23.2,4
		c-5.1,0-9.9,2-13.5,5.6l0,0C6,13.3,4,18.1,4,23.2c0,5.1,2,9.9,5.6,13.5l13.6,13.6l13.5-13.5c3.6-3.6,5.6-8.5,5.6-13.6
		c0-5.1-2-9.9-5.6-13.5C33.1,6,28.3,4,23.2,4z M8.2,8.2L8.2,8.2L8.2,8.2z M23.2,35.7c-3.2,0-6.4-1.2-8.9-3.6
		c-4.9-4.9-4.9-12.9,0-17.8c4.8-4.9,12.8-4.9,17.8,0c2.4,2.4,3.7,5.5,3.7,8.8c0,3.4-1.3,6.6-3.7,9C29.6,34.5,26.4,35.7,23.2,35.7z
		 M23.1,14.6c-2.2,0-4.4,0.8-6,2.5c-3.3,3.4-3.3,8.8,0,12.1c3.4,3.3,8.8,3.3,12.1,0c1.6-1.6,2.5-3.8,2.5-6.1c0-2.3-0.9-4.4-2.5-6
		C27.5,15.4,25.3,14.6,23.1,14.6z"/>
</g>
</svg>
