<?xml version="1.0" encoding="utf-8"?>
<!-- Generator: Adobe Illustrator 19.2.1, SVG Export Plug-In . SVG Version: 6.00 Build 0)  -->
<!DOCTYPE svg PUBLIC "-//W3C//DTD SVG 1.1//EN" "http://www.w3.org/Graphics/SVG/1.1/DTD/svg11.dtd">
<svg version="1.1" id="Calque_1" xmlns="http://www.w3.org/2000/svg" xmlns:xlink="http://www.w3.org/1999/xlink" x="0px" y="0px"
	 viewBox="0 0 18.7 18.8" style="enable-background:new 0 0 18.7 18.8;" xml:space="preserve">
<g>
	<path d="M18.2,15.8l-6.4-6.4L18.1,3c0.7-0.7,0.7-1.8,0-2.5c-0.6-0.6-1.8-0.6-2.5,0L9.3,6.9L3,0.6c-0.7-0.7-1.8-0.7-2.5,0
		c-0.6,0.6-0.6,1.8,0,2.5l6.3,6.3l-6.3,6.3c-0.7,0.7-0.7,1.8,0,2.5C1.2,19,2.3,19,3,18.3L9.4,12l6.3,6.3c0.7,0.7,1.8,0.7,2.5,0
		C18.9,17.6,18.9,16.5,18.2,15.8z"/>
</g>
</svg>
