<?xml version="1.0" encoding="utf-8"?>
<!-- Generator: Adobe Illustrator 19.2.1, SVG Export Plug-In . SVG Version: 6.00 Build 0)  -->
<!DOCTYPE svg PUBLIC "-//W3C//DTD SVG 1.1//EN" "http://www.w3.org/Graphics/SVG/1.1/DTD/svg11.dtd">
<svg version="1.1" id="Calque_1" xmlns="http://www.w3.org/2000/svg" xmlns:xlink="http://www.w3.org/1999/xlink" x="0px" y="0px"
	 viewBox="0 0 82 69.9" style="enable-background:new 0 0 82 69.9;" xml:space="preserve">
<path d="M25.7,37.2c7.8,0,14.1-6.3,14.1-14.1c0-7.8-6.3-14.1-14.1-14.1c-7.8,0-14.1,6.3-14.1,14.1C11.6,30.8,17.9,37.2,25.7,37.2z
	 M19.3,14.2c1.9-1.4,4.1-2.1,6.4-2.1c5.4,0,9.9,3.8,10.8,9.1l0.2,1.3l-1-0.9c-2-1.6-4.6-2.2-7.5-2.8c-3.3-0.7-6.7-1.5-9-3.9
	l-0.4-0.4L19.3,14.2z M16.3,17.4l0.3-0.5l0.5,0.5c2.1,2.2,5,3.1,8.6,3.9c0.4,0.1,0.7,0.1,1.1,0.2c3.8,0.8,7.8,1.6,8.7,6.3l0.1,0.2
	l-0.1,0.2c-1.9,3.7-5.6,6-9.8,6c-6.1,0-11-4.9-11-11C14.7,21.1,15.3,19.1,16.3,17.4z"/>
<path d="M73.9,0H57.2c-4.4,0-8,3.6-8,8v1.1l-6.3,9l6.3-0.7v13.3c0,4.4,3.6,8,8,8h16.8c4.4,0,8-3.6,8-8V8C82,3.6,78.4,0,73.9,0z
	 M78.8,30.7c0,2.7-2.2,4.9-4.9,4.9H57.2c-2.7,0-4.9-2.2-4.9-4.9V13.8l-2.9,0.3l2.9-4.1V8c0-2.7,2.2-4.9,4.9-4.9h16.8
	c2.7,0,4.9,2.2,4.9,4.9V30.7z"/>
<path d="M78.3,66.7H48.2l0.4-0.7c0.4-0.8,0.6-1.7,0.6-2.6l-2.6-17.6c-0.1-3.6-3.5-6.4-7.6-6.4h-9l-4.4,4.5l0-0.1l-0.3-0.2L21,39.4
	h-8.7c-4.1,0-7.5,2.8-7.5,6.3L2.2,63.4c0,0.9,0.2,1.7,0.6,2.6l0.4,0.7H1.6c-0.9,0-1.6,0.7-1.6,1.6c0,0.9,0.7,1.6,1.6,1.6h76.7
	c0.9,0,1.6-0.7,1.6-1.6C79.8,67.4,79.1,66.7,78.3,66.7z M25.8,53.7l1.8,5.1L25.8,60L24,58.8L25.8,53.7z M46.1,63.5
	c-0.1,1.8-2.1,3.2-4.4,3.2H9.8c-2.3,0-4.3-1.4-4.4-3.2l0-0.1l0-0.1L8,45.9c0-1.8,2-3.3,4.4-3.3h7.4l5,4.8l-4.5,12.7l5.6,3.7l5.6-3.7
	l-4.6-12.9l4.5-4.7h7.7c2.4,0,4.4,1.5,4.4,3.3L46.1,63.5L46.1,63.5z"/>
<path d="M60.1,14.4h-0.9c-0.2,0-0.3,0.1-0.3,0.3v2.1c0,0.1-0.1,0.3-0.3,0.3h-2.1c-0.1,0-0.3-0.1-0.3-0.3v-2.1c0-0.2-0.1-0.3-0.3-0.3
	h-0.9c-0.2,0-0.3,0.1-0.3,0.3V21c0,0.1,0.1,0.3,0.3,0.3h0.9c0.1,0,0.3-0.1,0.3-0.3v-2.5c0-0.2,0.1-0.3,0.3-0.3h2.1
	c0.1,0,0.3,0.1,0.3,0.3V21c0,0.1,0.1,0.3,0.3,0.3h0.9c0.1,0,0.3-0.1,0.3-0.3v-6.3C60.3,14.5,60.2,14.4,60.1,14.4z"/>
<path d="M65.8,17c-0.2-0.3-0.5-0.6-0.9-0.8c-0.4-0.2-0.8-0.2-1.2-0.2c-0.7,0-1.3,0.2-1.8,0.7c-0.5,0.5-0.7,1.1-0.7,2
	c0,0.8,0.2,1.4,0.6,1.8c0.1,0.1,0.3,0.3,0.4,0.4c0.5,0.3,1,0.5,1.6,0.5c0.8,0,1.5-0.2,1.9-0.7c0.2-0.2,0.4-0.4,0.4-0.7
	c0.1-0.1-0.1-0.3-0.2-0.3h-0.8c-0.2,0-0.3,0.1-0.4,0.2c0,0.1-0.1,0.1-0.2,0.2c-0.2,0.2-0.4,0.2-0.7,0.2c-0.3,0-0.5-0.1-0.7-0.2
	c-0.3-0.2-0.4-0.4-0.5-0.8c0-0.1,0.1-0.3,0.2-0.3H66c0.1,0,0.3-0.1,0.3-0.3c0-0.3,0-0.6,0-0.7C66.1,17.7,66,17.3,65.8,17z
	 M64.6,18.2h-1.7c-0.1,0-0.3-0.1-0.2-0.3c0.1-0.2,0.2-0.4,0.3-0.5c0.2-0.2,0.5-0.3,0.8-0.3c0.3,0,0.6,0.1,0.8,0.3
	c0.1,0.1,0.3,0.3,0.3,0.5C64.9,18.1,64.7,18.2,64.6,18.2z"/>
<path d="M68,14.4h-0.8c-0.1,0-0.3,0.1-0.3,0.3V21c0,0.1,0.1,0.3,0.3,0.3H68c0.1,0,0.3-0.1,0.3-0.3v-6.3C68.3,14.5,68.2,14.4,68,14.4
	z"/>
<path d="M70.7,14.4h-0.8c-0.2,0-0.3,0.1-0.3,0.3V21c0,0.1,0.1,0.3,0.3,0.3h0.8c0.2,0,0.3-0.1,0.3-0.3v-6.3
	C70.9,14.5,70.8,14.4,70.7,14.4z"/>
<path d="M74.5,16c-0.9,0-1.5,0.3-2,0.8c-0.4,0.5-0.6,1.2-0.6,1.9c0,0.7,0.2,1.4,0.6,1.9c0.4,0.5,1.1,0.8,2,0.8c0.9,0,1.5-0.3,2-0.8
	c0.4-0.5,0.6-1.2,0.6-1.9c0-0.7-0.2-1.4-0.6-1.9C76.1,16.3,75.4,16,74.5,16z M75.4,19.9c-0.2,0.3-0.5,0.4-0.9,0.4
	c-0.4,0-0.7-0.1-0.9-0.4c-0.2-0.3-0.3-0.7-0.3-1.2c0-0.5,0.1-0.9,0.3-1.2c0.2-0.3,0.5-0.4,0.9-0.4c0.4,0,0.7,0.1,0.9,0.4
	c0.2,0.3,0.3,0.7,0.3,1.2C75.7,19.3,75.6,19.6,75.4,19.9z"/>
</svg>
