<svg xmlns="http://www.w3.org/2000/svg" xmlns:xlink="http://www.w3.org/1999/xlink" version="1.1" style="enable-background:new 0 0 89.4 132.6;" xml:space="preserve" width="89.4000015258789" height="132.60000610351562"><rect id="backgroundrect" width="100%" height="100%" x="0" y="0" fill="none" stroke="none"/>

<g class="currentLayer"><title>Layer 1</title><g id="svg_1" class="selected" fill-opacity="1" fill="#008b87">
	<path d="M45.475193810462955,-0.7751938104629517 C20.875193810462953,-0.7751938104629517 0.7751938104629517,18.82480618953705 0.7751938104629517,43.024806189537045 c0,21 14.6,48.1 26.9,67.2 c1.6,2.3 4.7,3 7.2,1.5 c2.4,-1.6 3,-4.7 1.5,-7 C15.475193810462951,72.12480618953705 11.075193810462952,53.22480618953705 11.075193810462952,43.024806189537045 c0,-18.5 15.4,-33.6 34.4,-33.6 c19,0 34.4,15.1 34.4,33.6 c0,31.3 -38.1,80.1 -38.4,80.5 c-0.9,1.1 -1.3,2.5 -1.1,3.9 c0.2,1.3 0.9,2.5 2,3.3 c0.8,0.6000000000000001 1.9,1 3.1,1 c1.7000000000000002,0 3.2,-0.7000000000000001 4.1,-2 l0.2,-0.2 c3.5,-4.6 12.7,-16.9 21.4,-32 c12.6,-21.9 19,-40.3 19,-54.6 C90.17519381046296,18.82480618953705 70.07519381046295,-0.7751938104629517 45.475193810462955,-0.7751938104629517 z" id="svg_2" fill="#008b87"/>
	<path d="M45.475193810462955,32.32480618953705 c2.9,0 5.2,-2.3 5.2,-5.1 s-2.3,-5.1 -5.2,-5.1 c-11.7,0 -21.3,9.4 -21.3,20.9 S33.77519381046295,63.92480618953705 45.475193810462955,63.92480618953705 S66.77519381046295,54.524806189537045 66.77519381046295,43.024806189537045 c0,-4.6 -1.5,-9.1 -4.4,-12.7 c-1.8,-2.2 -4.9,-2.6 -7.1,-0.9 c-1.1,0.9 -1.9,2.1 -2,3.5 c-0.2,1.3 0.2,2.7 1.1,3.7 c1.4,1.8 2.2,4 2.2,6.5 c0,5.9 -4.9,10.7 -10.9,10.7 c-6,0 -11.1,-4.9 -11.1,-10.7 C34.475193810462955,37.12480618953705 39.37519381046295,32.32480618953705 45.475193810462955,32.32480618953705 z" id="svg_3" fill="#008b87"/>
</g></g></svg>