<svg xmlns="http://www.w3.org/2000/svg" xmlns:xlink="http://www.w3.org/1999/xlink" version="1.1" xml:space="preserve" width="89.4" height="132.6"><rect id="backgroundrect" width="100%" height="100%" x="0" y="0" fill="none" stroke="none"/>

<g class="currentLayer"><title>Layer 1</title><g id="svg_1" class="selected" fill="#008b87" fill-opacity="1">
	<path d="M44.7,0C20.1,0,0,19.6,0,43.8c0,21,14.6,48.1,26.9,67.2c1.6,2.3,4.7,3,7.2,1.5c2.4-1.6,3-4.7,1.5-7   C14.7,72.9,10.3,54,10.3,43.8c0-18.5,15.4-33.6,34.4-33.6c19,0,34.4,15.1,34.4,33.6c0,31.3-38.1,80.1-38.4,80.5   c-0.9,1.1-1.3,2.5-1.1,3.9c0.2,1.3,0.9,2.5,2,3.3c0.8,0.6,1.9,1,3.1,1c1.7,0,3.2-0.7,4.1-2l0.2-0.2c3.5-4.6,12.7-16.9,21.4-32   c12.6-21.9,19-40.3,19-54.6C89.4,19.6,69.3,0,44.7,0z" id="svg_2" fill="#008b87" fill-opacity="1"/>
	<path d="M44.7,33.1c2.9,0,5.2-2.3,5.2-5.1s-2.3-5.1-5.2-5.1c-11.7,0-21.3,9.4-21.3,20.9S33,64.7,44.7,64.7S66,55.3,66,43.8   c0-4.6-1.5-9.1-4.4-12.7c-1.8-2.2-4.9-2.6-7.1-0.9c-1.1,0.9-1.9,2.1-2,3.5c-0.2,1.3,0.2,2.7,1.1,3.7c1.4,1.8,2.2,4,2.2,6.5   c0,5.9-4.9,10.7-10.9,10.7c-6,0-11.1-4.9-11.1-10.7C33.7,37.9,38.6,33.1,44.7,33.1z" id="svg_3" fill="#008b87" fill-opacity="1"/>
</g></g></svg>