<?xml version="1.0" encoding="utf-8"?>
<!-- Generator: Adobe Illustrator 19.2.1, SVG Export Plug-In . SVG Version: 6.00 Build 0)  -->
<!DOCTYPE svg PUBLIC "-//W3C//DTD SVG 1.1//EN" "http://www.w3.org/Graphics/SVG/1.1/DTD/svg11.dtd">
<svg version="1.1" id="Calque_1" xmlns="http://www.w3.org/2000/svg" xmlns:xlink="http://www.w3.org/1999/xlink" x="0px" y="0px"
	 viewBox="0 0 47.4 28.3" style="enable-background:new 0 0 47.4 28.3;" xml:space="preserve">
<path d="M24,26.4c-8.7,0-13-6.1-14-7.8c0.8-1.3,3.6-5.4,10-6.7c-2.2,1.3-3.7,3.5-3.7,6.1c0,3.9,3.4,7.2,7.5,7.2s7.5-3.2,7.5-7.2
	c0-2.7-1.5-5-3.8-6.2c6.7,1.2,9.5,5.5,10.2,6.8C36.7,20.2,32.6,26.4,24,26.4 M24,9.6c-11.9,0-15.8,8.3-16,8.6l-0.2,0.4L8,19
	c0.2,0.4,4.9,9.3,16,9.3c11.1,0,15.4-8.9,15.6-9.3l0.2-0.4l-0.2-0.4C39.5,17.9,35.9,9.6,24,9.6"/>
<path d="M23.8,8.2c0.8,0,1.4-0.8,1.4-1.7V1.7c0-1-0.6-1.7-1.4-1.7c-0.4,0-0.8,0.2-1.1,0.6c-0.2,0.3-0.3,0.7-0.3,1.1v4.7
	C22.3,7.4,23,8.2,23.8,8.2"/>
<path d="M47.2,12.4c-0.2-0.4-0.7-0.6-1.2-0.6c-0.4,0-0.7,0.1-1,0.3l-4,2.5c-0.4,0.2-0.6,0.5-0.8,0.9c-0.2,0.4-0.2,0.9,0.1,1.2
	c0.2,0.4,0.7,0.6,1.2,0.6c0.4,0,0.7-0.1,1-0.3l4-2.5C47.4,14,47.7,13.1,47.2,12.4"/>
<path d="M6.4,14.5l-4-2.5c-0.3-0.2-0.7-0.3-1-0.3c-0.5,0-1,0.2-1.2,0.6c-0.4,0.7-0.1,1.6,0.7,2.1l4,2.5c0.3,0.2,0.7,0.3,1,0.3
	c0.5,0,1-0.2,1.2-0.6c0.2-0.4,0.2-0.8,0.1-1.2C7.1,15.1,6.8,14.8,6.4,14.5"/>
<path d="M11.8,9.8c0.3,0.6,0.9,0.9,1.5,0.9c0.2,0,0.5-0.1,0.7-0.2c0.7-0.4,0.8-1.4,0.3-2.2l-2.5-4c-0.3-0.6-0.9-0.9-1.5-0.9
	c-0.2,0-0.5,0.1-0.7,0.2C8.9,4,8.8,5,9.3,5.8L11.8,9.8z"/>
<path d="M34,10.5c0.2,0.1,0.4,0.2,0.7,0.2c0.6,0,1.1-0.3,1.5-0.9l2.5-4C39.1,5,39,4,38.3,3.6c-0.2-0.1-0.4-0.2-0.7-0.2
	c-0.6,0-1.1,0.3-1.5,0.9l-2.5,4C33.1,9.1,33.3,10,34,10.5"/>
</svg>
