<?xml version="1.0" encoding="utf-8"?>
<!-- Generator: Adobe Illustrator 19.2.1, SVG Export Plug-In . SVG Version: 6.00 Build 0)  -->
<!DOCTYPE svg PUBLIC "-//W3C//DTD SVG 1.1//EN" "http://www.w3.org/Graphics/SVG/1.1/DTD/svg11.dtd">
<svg version="1.1" id="Calque_1" xmlns="http://www.w3.org/2000/svg" xmlns:xlink="http://www.w3.org/1999/xlink" x="0px" y="0px"
	 viewBox="0 0 70.9 70.9" style="enable-background:new 0 0 70.9 70.9;" xml:space="preserve">
<path d="M57.7,48.5c-0.6-0.6-1.5-0.6-2,0c-0.6,0.6-0.6,1.5,0,2l2.8,2.8c0.7,0.7,1,1.6,1,2.5c0,0.9-0.4,1.8-1,2.5l-0.1,0.1
	c-0.7,0.7-1.6,1-2.5,1c-0.9,0-1.8-0.4-2.5-1l-2.8-2.8c-0.5-0.5-1.2-0.6-1.8-0.2c-2.6,1.7-5.5,2.9-8.6,3.6c-0.7,0.1-1.2,0.7-1.2,1.4
	v4c0,2-1.6,3.6-3.6,3.6h-0.1c-2,0-3.6-1.6-3.6-3.6v-4c0-0.7-0.5-1.3-1.2-1.4c-3.1-0.6-6-1.8-8.6-3.6c-0.6-0.4-1.3-0.3-1.8,0.2
	l-2.8,2.8c-0.7,0.7-1.6,1-2.5,1c-0.9,0-1.8-0.4-2.5-1l-0.1-0.1c-0.7-0.7-1-1.6-1-2.5c0-0.9,0.4-1.8,1-2.5l2.8-2.8
	c0.5-0.5,0.6-1.2,0.2-1.8c-1.7-2.6-2.9-5.5-3.6-8.6c-0.1-0.7-0.7-1.2-1.4-1.2h-4c-2,0-3.6-1.6-3.6-3.6v-0.1c0-2,1.6-3.6,3.6-3.6h4
	c0.7,0,1.3-0.5,1.4-1.2c0.6-3.1,1.8-6,3.6-8.6c0.4-0.6,0.3-1.3-0.2-1.8l-2.8-2.8c-0.7-0.7-1-1.6-1-2.5c0-0.9,0.4-1.8,1-2.5l0.1-0.1
	c0.7-0.7,1.6-1,2.5-1c1,0,1.8,0.4,2.5,1l2.8,2.8c0.6,0.6,1.5,0.6,2,0c0.6-0.6,0.6-1.5,0-2l-2.8-2.8c-1.2-1.2-2.8-1.9-4.6-1.9
	c-1.7,0-3.3,0.7-4.6,1.9l-0.1,0.1c-1.2,1.2-1.9,2.8-1.9,4.6c0,1.7,0.7,3.3,1.9,4.6l2,2c-1.4,2.3-2.4,4.8-3.1,7.4H6.4
	c-3.6,0-6.4,2.9-6.4,6.4v0.1c0,3.5,2.9,6.4,6.4,6.4h2.8c0.6,2.6,1.7,5.1,3.1,7.4l-2,2c-1.2,1.2-1.9,2.8-1.9,4.6
	c0,1.7,0.7,3.3,1.9,4.6l0.1,0.1c1.2,1.2,2.8,1.9,4.6,1.9c1.7,0,3.3-0.7,4.6-1.9l2-2c2.3,1.4,4.8,2.4,7.4,3.1v2.8
	c0,3.5,2.9,6.4,6.4,6.4h0.1c3.5,0,6.4-2.9,6.4-6.4v-2.8c2.6-0.6,5.1-1.7,7.4-3.1l2,2c1.2,1.2,2.8,1.9,4.6,1.9c1.7,0,3.3-0.7,4.6-1.9
	l0.1-0.1c1.2-1.2,1.9-2.8,1.9-4.6c0-1.7-0.7-3.3-1.9-4.6L57.7,48.5z"/>
<path d="M64.4,28.9h-2.8c-0.6-2.6-1.7-5.1-3.1-7.4l2-2c2.5-2.5,2.5-6.6,0-9.1l-0.1-0.1c-1.2-1.2-2.8-1.9-4.6-1.9
	c-1.7,0-3.3,0.7-4.6,1.9l-2,2c-2.3-1.4-4.8-2.4-7.4-3.1V6.4C41.9,2.9,39,0,35.5,0h-0.1c-3.5,0-6.4,2.9-6.4,6.4v4
	c0,0.8,0.6,1.4,1.4,1.4c0.8,0,1.4-0.6,1.4-1.4v-4c0-2,1.6-3.6,3.6-3.6h0.1c2,0,3.6,1.6,3.6,3.6v4c0,0.7,0.5,1.3,1.2,1.4
	c3.1,0.6,5.9,1.8,8.6,3.6c0.6,0.4,1.3,0.3,1.8-0.2l2.8-2.8c0.7-0.7,1.6-1,2.5-1c0.9,0,1.8,0.4,2.5,1l0.1,0.1c0.7,0.7,1,1.6,1,2.5
	c0,0.9-0.4,1.8-1,2.5l-2.8,2.8c-0.5,0.5-0.6,1.2-0.2,1.8c1.7,2.6,2.9,5.5,3.6,8.6c0.1,0.7,0.7,1.2,1.4,1.2h4c2,0,3.6,1.6,3.6,3.6
	v0.1c0,2-1.6,3.6-3.6,3.6h-4c-0.8,0-1.4,0.6-1.4,1.4c0,0.8,0.6,1.4,1.4,1.4h4c3.5,0,6.4-2.9,6.4-6.4v-0.1
	C70.9,31.8,68,28.9,64.4,28.9"/>
<path d="M35.4,40.9c-1.3,0-2.4-0.4-3.4-1.2c-0.6-0.5-1.5-0.4-2,0.2c-0.5,0.6-0.4,1.5,0.2,2c1.5,1.2,3.3,1.9,5.2,1.9
	c4.6,0,8.3-3.7,8.3-8.3c0-4.6-3.7-8.3-8.3-8.3c-4.6,0-8.3,3.7-8.3,8.3c0,0.8,0.6,1.4,1.4,1.4c0.8,0,1.4-0.6,1.4-1.4
	c0-3,2.4-5.4,5.4-5.4c3,0,5.4,2.4,5.4,5.4C40.9,38.4,38.4,40.9,35.4,40.9"/>
</svg>
