<svg xmlns="http://www.w3.org/2000/svg" xmlns:xlink="http://www.w3.org/1999/xlink" version="1.1" xml:space="preserve" width="119.7" height="125.6"><rect id="backgroundrect" width="100%" height="100%" x="0" y="0" fill="none" stroke="none"/>

<g class="currentLayer"><title>Layer 1</title><g id="svg_1" class="selected" fill="#008b87" fill-opacity="1">
	<path d="M93.6,57.8H26.1c-8.9,0-16.2-7.3-16.2-16.2c0-8.9,7.3-16.2,16.2-16.2h42.2c2.7,0,4.9-2.2,4.9-5s-2.2-5-4.9-5H26.1   C11.7,15.5,0,27.2,0,41.6C0,56,11.7,67.7,26.1,67.7h67.6c8.9,0,16.2,7.3,16.2,16.2c0,8.9-7.3,16.2-16.2,16.2H51   c-2.7,0-4.9,2.2-4.9,5s2.2,5,4.9,5h42.6c14.4,0,26.1-11.7,26.1-26.1C119.7,69.6,108,57.8,93.6,57.8z" id="svg_2" fill="#008b87" fill-opacity="1"/>
	<path d="M25.8,73.8c-10.5,0-19.1,8.5-19.1,18.9c0,15.9,14.9,30.8,15.5,31.4c0.9,0.9,2.2,1.5,3.6,1.5c1.3,0,2.6-0.5,3.6-1.5   c0.6-0.6,15.5-15.6,15.5-31.4C44.8,82.3,36.3,73.8,25.8,73.8z M34.8,92.7c0,7.7-5.4,15.7-9,20.3c-3.6-4.5-9-12.6-9-20.3   c0-4.9,4-8.9,9-8.9S34.8,87.8,34.8,92.7z" id="svg_3" fill="#008b87" fill-opacity="1"/>
	<path d="M93.6,51.8c1.3,0,2.6-0.5,3.5-1.5c0.6-0.6,15.5-15.5,15.5-31.4C112.7,8.5,104.1,0,93.6,0C83.1,0,74.5,8.5,74.5,18.9   c0,15.8,14.9,30.8,15.5,31.4C91,51.3,92.2,51.8,93.6,51.8z M84.6,18.9c0-4.9,4-8.9,9-8.9c5,0,9,4,9,8.9c0,7.7-5.4,15.8-9,20.3   C90,34.7,84.6,26.6,84.6,18.9z" id="svg_4" fill="#008b87" fill-opacity="1"/>
</g></g></svg>