<?xml version="1.0" encoding="utf-8"?>
<!-- Generator: Adobe Illustrator 19.2.1, SVG Export Plug-In . SVG Version: 6.00 Build 0)  -->
<!DOCTYPE svg PUBLIC "-//W3C//DTD SVG 1.1//EN" "http://www.w3.org/Graphics/SVG/1.1/DTD/svg11.dtd">
<svg version="1.1" id="Calque_1" xmlns="http://www.w3.org/2000/svg" xmlns:xlink="http://www.w3.org/1999/xlink" x="0px" y="0px"
	 viewBox="0 0 121.9 121.9" style="enable-background:new 0 0 121.9 121.9;" xml:space="preserve">
<style type="text/css">
	.st0{fill:#008B87;}
	.st1{fill:#FFFFFF;}
</style>
<path class="st0" d="M60.9,0C27.3,0,0,27.3,0,60.9s27.3,60.9,60.9,60.9s60.9-27.3,60.9-60.9C121.9,27.3,94.5,0,60.9,0z"/>
<path class="st1" d="M85.9,79.6l-0.2-0.2l0.1-0.3c1.3-3,1.9-6.2,1.9-9.4c0-1-0.9-1.9-1.9-1.9s-1.9,0.8-1.9,1.9
	c0,2.1-0.3,4.2-0.9,6.2l-0.2,0.8l-0.6-0.5c-3.6-3.2-7.7-6.8-11.3-9.8c-2.8-2.3-5.6-4.8-8.4-7.3l-0.4-0.4l0.4-0.4
	c7.6-6.4,14.9-13.4,14.9-21.6c0-4.9-2.6-10.7-9.9-10.7c-3.6,0-6.7,2.8-7.9,3.9l-0.3,0.3L58.9,30c-2.7-2.6-5.4-4-7.9-4
	c-7.3,0-9.9,5.5-9.9,10.7c0,6.8,7.5,14.7,14.8,21.4l0.4,0.4l-0.4,0.4c-8.1,6.8-14.8,13-14.8,20.1c0,7.2,3.6,11.2,6.6,13.4
	c4.5,3.2,9.6,3.5,11.5,3.5c9.9,0,19-4.7,24.2-12.5l0.3-0.5l0.4,0.4C88.8,88,91,91.5,91,94c0,1,0.8,1.9,1.9,1.9c1,0,1.9-0.8,1.9-1.9
	C94.9,90.4,92.1,85.8,85.9,79.6z M44.9,36.7c0-4.5,2.2-7,6.2-7c2.6,0,5.8,3.3,6.7,4.5l1.5,1.9l1.5-1.9c1-1.3,4.1-4.5,6.8-4.5
	c2.3,0,6.2,0.9,6.2,7c0,6.6-6.7,12.8-14.1,19.1l-0.3,0.3l-0.3-0.3C49.2,46.9,44.9,41,44.9,36.7z M81,80.6
	c-4.3,7-12.8,11.6-21.7,11.6c-0.6,0-14.4-0.1-14.4-13.2c0-5.6,6.3-11.3,14-17.6l0.3-0.3l0.3,0.3c2.5,2.3,5.2,4.6,8.1,7l2.2,1.9
	c3.8,3.2,7.7,6.5,11.1,9.7l0.3,0.3L81,80.6z"/>
</svg>
