<?xml version="1.0" encoding="utf-8"?>
<!-- Generator: Adobe Illustrator 19.2.1, SVG Export Plug-In . SVG Version: 6.00 Build 0)  -->
<!DOCTYPE svg PUBLIC "-//W3C//DTD SVG 1.1//EN" "http://www.w3.org/Graphics/SVG/1.1/DTD/svg11.dtd">
<svg version="1.1" id="Calque_1" xmlns="http://www.w3.org/2000/svg" xmlns:xlink="http://www.w3.org/1999/xlink" x="0px" y="0px"
	 viewBox="0 0 121.9 121.9" style="enable-background:new 0 0 121.9 121.9;" xml:space="preserve">
<style type="text/css">
	.st0{fill:#008B87;}
	.st1{fill:#FFFFFF;}
</style>
<g>
	<path class="st0" d="M60.9,0C27.3,0,0,27.3,0,60.9s27.3,60.9,60.9,60.9s60.9-27.3,60.9-60.9C121.9,27.3,94.5,0,60.9,0z"/>
	<path class="st1" d="M62.3,34.1c0,1,0.8,1.8,1.8,1.8s1.8-0.8,1.8-1.8c0-6.2-5.1-11.3-11.3-11.3c-6.1,0-11.3,5.2-11.3,11.3
		c0,1,0.8,1.8,1.8,1.8s1.8-0.8,1.8-1.8c0-4.2,3.5-7.7,7.7-7.7S62.3,29.9,62.3,34.1z"/>
	<path class="st1" d="M85.6,38.6h-24c-3.1,0-5.6,2.5-5.6,5.6v36.6c0,3.1,2.5,5.6,5.6,5.6h24c3.1,0,5.6-2.5,5.6-5.6V44.2
		C91.2,41.1,88.7,38.6,85.6,38.6z M59.6,44.2c0-1.1,0.9-2,2-2h24c1.1,0,2,0.9,2,2v36.6c0,1.1-0.9,2-2,2h-24c-1.1,0-2-0.9-2-2V44.2z"
		/>
	<path class="st1" d="M42,38.7c-6.2,0-11.3,5.1-11.3,11.3c0,4.3,2.5,8.2,6.3,10.1v37.2c0,1,0.8,1.8,1.8,1.8s1.8-0.8,1.8-1.8v-4.5
		h4.5c1,0,1.8-0.8,1.8-1.8s-0.8-1.8-1.8-1.8h-4.5v-2.6h4.5c1,0,1.7-0.8,1.7-1.9c0-1-0.8-1.8-1.8-1.8h-4.5v-24c0-0.2-0.1-0.3-0.1-0.3
		l-0.1-0.3l-0.1-0.1c0-0.1-0.1-0.2-0.1-0.3c0-0.2-0.1-0.3-0.2-0.4l-0.1-0.1h-0.1c0,0-0.1,0-0.1-0.1c-0.1-0.1-0.2-0.1-0.3-0.1
		c-3-1-5.1-3.9-5.1-7.1c0-4.2,3.5-7.7,7.7-7.7s7.7,3.5,7.7,7.7c0,3.2-2.1,6-5.2,7.2c-0.9,0.4-1.3,1.4-1,2.4c0.4,0.9,1.5,1.3,2.4,1
		c4.5-1.6,7.5-5.9,7.5-10.7c0-3-1.2-5.9-3.4-8C47.8,39.8,45,38.6,42,38.7z"/>
</g>
</svg>
