<?xml version="1.0" encoding="utf-8"?>
<!-- Generator: Adobe Illustrator 19.2.1, SVG Export Plug-In . SVG Version: 6.00 Build 0)  -->
<!DOCTYPE svg PUBLIC "-//W3C//DTD SVG 1.1//EN" "http://www.w3.org/Graphics/SVG/1.1/DTD/svg11.dtd">
<svg version="1.1" id="Calque_1" xmlns="http://www.w3.org/2000/svg" xmlns:xlink="http://www.w3.org/1999/xlink" x="0px" y="0px"
	 viewBox="0 0 121.9 121.9" style="enable-background:new 0 0 121.9 121.9;" xml:space="preserve">
<style type="text/css">
	.st0{fill:#008B87;}
	.st1{fill:#FFFFFF;}
</style>
<g>
	<path class="st0" d="M60.9,121.9C27.3,121.9,0,94.5,0,60.9S27.3,0,60.9,0s60.9,27.3,60.9,60.9C121.9,94.5,94.5,121.9,60.9,121.9z"
		/>
</g>
<g>
	<path class="st1" d="M54,73.6h-7.7c-0.9,0-1.7,0.8-1.7,1.7c0,0.9,0.7,1.7,1.7,1.7H54c0.9,0,1.7-0.8,1.7-1.7S55,73.6,54,73.6"/>
</g>
<g>
	<path class="st1" d="M86.8,89.6l-6-33.8c-0.2-0.9-0.9-1.5-1.8-1.4s-1.5,0.8-1.5,1.7v42.3c-1.4,0-3.4,0.1-6.3,0.2
		c-0.1,0-0.1,0-0.2,0c-5.9,0-8.1-15.4-8.4-20.8V65.9c0.1-0.1,0.2-0.1,0.4-0.2c11.9-10.3,13.9-30,14.2-35.8l5.9,3
		C90,44,93.8,80.7,94.6,89.2L86.8,89.6z M50.8,98.6c-0.1,0-0.1,0-0.2,0c-2.7-0.1-4.6-0.2-6-0.2h-0.2V56.1c0-0.9-0.7-1.6-1.5-1.7
		c-0.9-0.1-1.6,0.5-1.8,1.4l-6,33.8l-7.9-0.3C28,80.8,31.8,44,38.7,33l5.9-3c0.3,5.8,2.4,25.5,14.2,35.8c0.1,0.1,0.2,0.2,0.4,0.2v7
		v4.9C58.9,83.2,56.7,98.6,50.8,98.6 M50.2,27.1c0.1,0,0.1-0.1,0.2-0.1l2.4-1.7c-0.6,6.1-0.8,18.5,4.3,33.3c-8.5-11.7-9-29.7-9-30.4
		L50.2,27.1z M56.4,23.3h9.2c0.6,4.4,2,18.9-4.6,36.4C54.4,42.2,55.7,27.6,56.4,23.3 M71.5,27c0.1,0.1,0.1,0.1,0.2,0.1l2.2,1.1
		c0,0.7-0.5,18.6-9,30.4c5.1-14.8,4.9-27.2,4.3-33.3L71.5,27z M85.6,30.6c-0.2-0.2-0.4-0.4-0.6-0.6l-11.6-6L68,20.1
		c-0.3-0.2-0.7-0.3-1-0.3l0,0H55.3c-0.1,0-0.1,0-0.2,0c-0.4-0.1-0.8,0-1.2,0.3L48.5,24l-11.6,6c-0.3,0.1-0.5,0.3-0.6,0.6
		C27.8,43.2,24,88.8,23.8,90.7c0,0.5,0.1,0.9,0.4,1.3c0.3,0.3,0.7,0.6,1.2,0.6l11,0.4c0.8,0.1,1.6-0.6,1.7-1.4L41,75.1v24.7l0,0
		c-0.2,0.8,0.3,1.7,1.1,2c0.5,0.2,1,0.2,1.4-0.1c0.6,0,2.4-0.1,7,0.2c0.1,0,0.2,0,0.4,0c5.6,0,8.5-6.7,10.1-13
		c1.6,6.4,4.5,13,10.1,13c0.1,0,0.2,0,0.4,0c4.6-0.2,6.4-0.2,7-0.2c0.4,0.2,0.9,0.3,1.4,0.1c0.8-0.3,1.2-1.2,1-2l0,0V75.2l2.9,16.5
		c0.1,0.8,0.9,1.5,1.7,1.4l11.1-0.5c0.5,0,0.9-0.2,1.2-0.6c0.3-0.4,0.4-0.8,0.4-1.3C98,88.8,94.1,43.3,85.6,30.6"/>
</g>
<g>
	<path class="st1" d="M75.6,73.6h-7.7c-0.9,0-1.7,0.8-1.7,1.7c0,0.9,0.7,1.7,1.7,1.7h7.7c0.9,0,1.7-0.8,1.7-1.7
		C77.3,74.4,76.5,73.6,75.6,73.6"/>
</g>
</svg>
