<?xml version="1.0" encoding="utf-8"?>
<!-- Generator: Adobe Illustrator 19.2.1, SVG Export Plug-In . SVG Version: 6.00 Build 0)  -->
<!DOCTYPE svg PUBLIC "-//W3C//DTD SVG 1.1//EN" "http://www.w3.org/Graphics/SVG/1.1/DTD/svg11.dtd">
<svg version="1.1" id="Calque_1" xmlns="http://www.w3.org/2000/svg" xmlns:xlink="http://www.w3.org/1999/xlink" x="0px" y="0px"
	 viewBox="0 0 121.9 121.9" style="enable-background:new 0 0 121.9 121.9;" xml:space="preserve">
<style type="text/css">
	.st0{fill:#008B87;}
	.st1{fill:#FFFFFF;}
</style>
<g>
	<path class="st0" d="M60.9,121.9C27.3,121.9,0,94.5,0,60.9S27.3,0,60.9,0s60.9,27.3,60.9,60.9C121.9,94.5,94.5,121.9,60.9,121.9z"
		/>
</g>
<g>
	<path class="st1" d="M47.8,94.3h-19c-0.5,0-1-0.3-1.3-0.7c-0.3-0.5-0.3-1,0-1.5c0.4-0.7,10.1-17.5,19-18.9c7-1.1,19.1-1.2,23.6-1.2
		c0.8,0,1.3,0,1.4,0c1.7-0.1,3.6,1.6,3.8,3.5c0.1,0.8,0.1,3.6-4.5,4.4c-1.2,0.2-2.5,0.4-3.8,0.7c2.1,0.1,4-0.1,5.2-0.7
		c1.4-0.7,2.7-1.3,3.8-1.8c2.6-1.2,4.7-2.1,6-3.6c1.5-1.8,5.1-2.2,6.9-0.8c1.1,0.9,1.8,2.6,0.3,4.9l-0.1,0.1
		c-0.4,0.5-10,11.6-18.9,11.4c-1.3,0-2.8-0.1-4.2-0.2c-7-0.4-14.9-0.9-16.9,3.6C48.9,93.9,48.3,94.3,47.8,94.3z M31.4,91.3h15.4
		c3.3-5.5,11.8-4.9,19.4-4.5c1.4,0.1,2.8,0.2,4.1,0.2c7.2,0.2,15.7-9.4,16.4-10.2C87.1,76.2,87,76,87,76s-0.4-0.2-1.1-0.1
		c-0.9,0-1.5,0.3-1.7,0.5c-1.7,2-4.2,3.1-7.1,4.4c-1.2,0.5-2.4,1-3.7,1.7c-4.9,2.4-15.8-0.2-17-0.5c-0.7-0.2-1.2-0.8-1.1-1.5
		c0-0.7,0.6-1.3,1.3-1.4c0.1,0,8.1-1.1,13.6-2.2c1.5-0.3,2.1-0.8,2.1-1c0-0.4-0.5-0.9-0.7-1c-0.2,0-0.8,0-1.5,0
		C66,74.9,53.6,75,46.9,76C41.6,76.9,34.9,85.9,31.4,91.3z M88,77.7L88,77.7L88,77.7z M96.3,69.5H25.6c-0.8,0-1.5-0.7-1.5-1.5
		s0.7-1.5,1.5-1.5h70.7c0.8,0,1.5,0.7,1.5,1.5S97.1,69.5,96.3,69.5z M91.4,64.5h-61c-0.8,0-1.5-0.7-1.5-1.5C29,48,40.3,35.6,55.2,33
		c-1.2-1.3-2-3.1-2-5c0-4.1,3.5-7.5,7.7-7.5s7.7,3.3,7.7,7.5c0,1.9-0.7,3.6-2,5c15,2.6,26.3,15,26.3,30
		C92.9,63.8,92.3,64.5,91.4,64.5z M32,61.5h57.9c-0.8-14.5-13.5-26-29-26C45.5,35.5,32.8,47,32,61.5z M60.9,23.6
		c-2.6,0-4.7,2-4.7,4.5s2.1,4.5,4.7,4.5s4.7-2,4.7-4.5S63.6,23.6,60.9,23.6z"/>
</g>
</svg>
